<?xml version="1.0" encoding="UTF-8" standalone="no"?>
<!DOCTYPE svg PUBLIC "-//W3C//DTD SVG 1.1//EN" "http://www.w3.org/Graphics/SVG/1.1/DTD/svg11.dtd">
<svg version="1.1" xmlns="http://www.w3.org/2000/svg" xmlns:xlink="http://www.w3.org/1999/xlink" preserveAspectRatio="xMidYMid meet" viewBox="0 0 640 640" width="640" height="640"><defs><path d="M438.02 192.18L468.1 213.57L440.15 251.27L441.93 253.36L446.31 258.99L450.47 264.78L454.4 270.73L458.11 276.84L461.58 283.1L464.81 289.49L467.78 296.03L470.51 302.7L472.97 309.49L475.16 316.41L477.09 323.43L478.73 330.57L480.09 337.8L481.15 345.14L481.92 352.56L482.39 360.06L482.54 367.65L482.39 375.23L481.92 382.74L481.15 390.16L480.09 397.49L478.73 404.73L477.09 411.86L475.16 418.89L472.97 425.8L470.51 432.59L467.78 439.26L464.81 445.8L461.58 452.2L458.11 458.46L454.4 464.56L450.47 470.52L446.31 476.31L441.93 481.93L437.33 487.38L432.53 492.66L427.53 497.74L422.34 502.64L416.96 507.34L411.39 511.84L405.65 516.13L399.74 520.21L393.66 524.07L387.43 527.7L381.04 531.1L374.51 534.26L367.83 537.17L361.03 539.84L354.09 542.25L347.03 544.4L339.86 546.29L332.58 547.89L325.19 549.22L317.71 550.27L310.13 551.02L302.47 551.48L294.72 551.63L286.98 551.48L279.32 551.02L271.74 550.27L264.26 549.22L256.87 547.89L249.59 546.29L242.42 544.4L235.36 542.25L228.42 539.84L221.62 537.17L214.94 534.26L208.41 531.1L202.02 527.7L195.79 524.07L189.71 520.21L183.8 516.13L178.06 511.84L172.49 507.34L167.11 502.64L161.92 497.74L156.92 492.66L152.12 487.38L147.52 481.93L143.14 476.31L138.98 470.52L135.04 464.56L131.34 458.46L127.87 452.2L124.64 445.8L121.66 439.26L118.94 432.59L116.48 425.8L114.29 418.89L112.36 411.86L110.72 404.73L109.36 397.49L108.3 390.16L107.53 382.74L107.06 375.23L106.9 367.65L107.06 360.06L107.53 352.56L108.3 345.14L109.36 337.8L110.72 330.57L112.36 323.43L114.29 316.41L116.48 309.49L118.94 302.7L121.66 296.03L124.64 289.49L127.87 283.1L131.34 276.84L135.04 270.73L138.98 264.78L143.14 258.99L147.52 253.36L152.12 247.91L156.92 242.64L161.92 237.55L167.11 232.65L172.49 227.95L178.06 223.45L183.8 219.16L189.71 215.08L195.79 211.23L202.02 207.6L208.41 204.2L214.94 201.04L221.62 198.12L228.42 195.45L235.36 193.04L242.42 190.89L249.59 189.01L256.87 187.4L264.26 186.07L271.74 185.03L279.32 184.27L286.98 183.82L294.72 183.66L302.47 183.82L310.13 184.27L317.71 185.03L325.19 186.07L332.58 187.4L339.86 189.01L347.03 190.89L354.09 193.04L357.46 194.21L386.27 155.36L427.56 184.74L464.72 133.48L475.26 140.81L438.02 192.18ZM191.9 240L190.55 240.21L189.16 240.52L187.75 240.9L186.32 241.38L184.86 241.93L183.38 242.57L181.88 243.29L180.36 244.09L178.83 244.97L177.28 245.92L175.72 246.95L174.15 248.05L172.57 249.23L170.98 250.48L169.39 251.79L167.8 253.18L166.21 254.63L164.61 256.15L163.02 257.74L161.44 259.38L159.86 261.09L158.29 262.86L156.73 264.69L155.18 266.58L153.65 268.52L152.13 270.52L150.63 272.57L149.15 274.67L147.69 276.83L146.25 279.03L144.84 281.29L143.46 283.59L142.12 285.91L140.83 288.24L139.6 290.56L138.42 292.87L137.3 295.18L136.24 297.48L135.23 299.77L134.28 302.04L133.39 304.3L132.55 306.53L131.77 308.75L131.05 310.95L130.39 313.11L129.78 315.25L129.23 317.36L128.75 319.44L128.32 321.49L127.95 323.49L127.64 325.46L127.39 327.39L127.2 329.27L127.07 331.11L127 332.9L126.99 334.64L127.04 336.33L127.16 337.96L127.33 339.54L127.57 341.05L127.87 342.51L128.23 343.9L128.66 345.22L129.15 346.48L129.7 347.67L130.31 348.78L130.99 349.82L131.73 350.78L132.54 351.66L133.41 352.46L134.35 353.17L135.35 353.8L136.4 354.34L137.5 354.77L138.64 355.11L139.83 355.36L141.05 355.5L142.3 355.56L143.59 355.53L144.92 355.4L146.27 355.19L147.66 354.88L149.07 354.5L150.5 354.02L151.96 353.47L153.44 352.83L154.94 352.11L156.46 351.31L158 350.43L159.54 349.48L161.1 348.45L162.67 347.35L164.25 346.17L165.84 344.92L167.43 343.61L169.02 342.22L170.61 340.77L172.21 339.25L173.8 337.67L175.38 336.02L176.96 334.31L178.53 332.54L180.09 330.71L181.64 328.82L183.17 326.88L184.69 324.88L186.19 322.83L187.67 320.73L189.13 318.57L190.57 316.37L191.98 314.11L193.36 311.81L194.7 309.49L195.99 307.16L197.22 304.84L198.4 302.53L199.52 300.22L200.58 297.92L201.59 295.63L202.54 293.36L203.43 291.1L204.27 288.87L205.05 286.65L205.77 284.46L206.44 282.29L207.04 280.15L207.59 278.04L208.08 275.96L208.5 273.91L208.87 271.91L209.18 269.94L209.43 268.01L209.62 266.13L209.75 264.29L209.82 262.5L209.83 260.76L209.78 259.07L209.66 257.44L209.49 255.86L209.25 254.35L208.95 252.89L208.59 251.5L208.16 250.18L207.68 248.92L207.12 247.73L206.51 246.62L205.83 245.58L205.09 244.62L204.28 243.74L203.41 242.94L202.48 242.23L201.47 241.6L200.42 241.07L199.32 240.63L198.18 240.29L197 240.05L195.77 239.9L194.52 239.84L193.23 239.87L191.9 240ZM567.92 63.1L542.31 88.81L548.35 125.12L516.69 107.97L485.04 125.12L491.08 88.81L465.47 63.1L500.87 57.79L516.69 24.76L532.52 57.79L567.92 63.1Z" id="cyzt12eLW"></path></defs><g><g><g><use xlink:href="#cyzt12eLW" opacity="1" fill="#131415" fill-opacity="1"></use></g></g></g></svg>