<?xml version="1.0" encoding="utf-8"?>
<!-- Generator: Adobe Illustrator 15.0.0, SVG Export Plug-In . SVG Version: 6.00 Build 0)  -->
<!DOCTYPE svg PUBLIC "-//W3C//DTD SVG 1.1//EN" "http://www.w3.org/Graphics/SVG/1.1/DTD/svg11.dtd">
<svg version="1.1" id="Layer_1" xmlns="http://www.w3.org/2000/svg" xmlns:xlink="http://www.w3.org/1999/xlink" x="0px" y="0px"
	 width="153.352px" height="33.898px" viewBox="0 0.156 153.352 33.898" enable-background="new 0 0.156 153.352 33.898"
	 xml:space="preserve">
<path fill="#FFFFFF" d="M24.121,33.906h-9.025V21.031H9.25v12.875H0V0.684h9.25v12.393h5.846V0.684h9.025V33.906z M65.519,34.054
	c9.249,0,16.797-7.692,16.797-17.053c0-9.51-7.548-16.871-16.797-16.871c-9.359,0-14.095,6.808-15.241,9.58
	c0-4.105-4.106-9.026-8.879-9.026H25.971v33.222h14.353c5.847,0,9.953-4.993,9.953-9.359C51.57,27.246,56.159,34.054,65.519,34.054
	 M39.178,20.551c1.333,0,2.406,1.296,2.406,2.775c0,1.553-1.073,2.848-2.406,2.848h-4.586v-5.623H39.178z M39.178,8.082
	c1.333,0,2.406,1.296,2.406,2.775c0,1.48-1.073,2.776-2.406,2.776h-4.586V8.082H39.178z M45.246,17
	c1.073-0.076,2.811-1.296,3.477-2.036c-0.258,0.886-0.258,3.7,0,4.588C47.983,18.479,46.319,17.186,45.246,17 M57.085,17
	c0-4.663,3.772-8.438,8.434-8.438c4.66,0,8.435,3.775,8.435,8.438c0,4.7-3.774,8.468-8.435,8.468
	C60.857,25.469,57.085,21.7,57.085,17 M65.519,23.656c3.589,0,6.622-2.958,6.622-6.656c0-3.701-3.033-6.624-6.622-6.624
	c-3.7,0-6.657,2.923-6.657,6.624C58.861,20.699,61.818,23.656,65.519,23.656"/>
<g>
	<path fill="#FFFFFF" d="M150.189,1.322c0.005,0.1,0.027,0.182,0.067,0.244c0.076,0.116,0.211,0.175,0.403,0.175
		c0.086,0,0.164-0.013,0.234-0.039c0.138-0.049,0.207-0.138,0.207-0.265c0-0.096-0.031-0.164-0.089-0.205
		c-0.06-0.04-0.149-0.074-0.276-0.104l-0.231-0.054c-0.149-0.035-0.256-0.074-0.319-0.116c-0.107-0.074-0.161-0.184-0.161-0.33
		c0-0.158,0.053-0.288,0.16-0.389c0.105-0.101,0.257-0.152,0.451-0.152c0.18,0,0.332,0.044,0.456,0.134
		c0.127,0.089,0.188,0.231,0.188,0.426h-0.223c-0.013-0.094-0.037-0.167-0.074-0.216c-0.069-0.092-0.188-0.138-0.354-0.138
		c-0.135,0-0.231,0.029-0.291,0.089c-0.058,0.059-0.089,0.127-0.089,0.206c0,0.086,0.036,0.149,0.105,0.188
		c0.047,0.026,0.149,0.058,0.31,0.097l0.239,0.056c0.115,0.028,0.204,0.064,0.267,0.112c0.108,0.082,0.162,0.201,0.162,0.358
		c0,0.195-0.068,0.333-0.206,0.417c-0.139,0.083-0.301,0.126-0.483,0.126c-0.212,0-0.379-0.056-0.5-0.167
		c-0.121-0.111-0.18-0.262-0.178-0.452H150.189z"/>
	<path fill="#FFFFFF" d="M151.663,0.13h0.341l0.506,1.487l0.503-1.487h0.339V1.89h-0.229V0.852c0-0.036,0.001-0.096,0.003-0.178
		c0.001-0.083,0.002-0.172,0.002-0.268l-0.501,1.484h-0.236l-0.507-1.484V0.46c0,0.043,0.001,0.109,0.003,0.197
		c0.003,0.089,0.004,0.152,0.004,0.195V1.89h-0.228V0.13z"/>
</g>
<g>
	<path fill="#FFFFFF" d="M136.276,0c-8.728,0-15.915,6.565-16.904,15.026h-17.895v6.602h9.613c-0.778,3.206-3.494,5.196-7.141,5.196
		c-5.674,0-9.415-4.033-9.415-10.054c0-5.192,3.786-9.078,8.834-9.078c3.061,0,5.637,1.507,7.09,4.227h9.271
		c-1.843-6.653-8.738-11.507-16.113-11.507c-9.808,0-17.334,7.28-17.334,16.698c0,9.469,7.526,16.943,17.137,16.943
		c7.997,0,14.426-4.919,16.566-12.066c2.124,6.984,8.612,12.066,16.29,12.066c9.404,0,17.027-7.622,17.027-17.027
		S145.681,0,136.276,0z M136.277,25.434c-4.642,0-8.407-3.764-8.407-8.407c0-4.646,3.766-8.409,8.407-8.409
		c4.645,0,8.406,3.763,8.406,8.409C144.684,21.67,140.922,25.434,136.277,25.434z"/>
	<circle fill="#FFFFFF" cx="136.231" cy="17.027" r="6.642"/>
</g>
</svg>
