<svg viewBox="0 0 248 199" xmlns="http://www.w3.org/2000/svg"><defs><filter x="-120%" y="-179.3%" width="340.1%" height="458.5%" filterUnits="objectBoundingBox" id="a"><feGaussianBlur stdDeviation="11.758" in="SourceGraphic"/></filter><filter x="-176.6%" y="-175.4%" width="453.2%" height="450.7%" filterUnits="objectBoundingBox" id="b"><feGaussianBlur stdDeviation="11.758" in="SourceGraphic"/></filter><filter x="-439%" y="-435.9%" width="978.1%" height="971.7%" filterUnits="objectBoundingBox" id="c"><feGaussianBlur stdDeviation="11.758" in="SourceGraphic"/></filter><filter x="-20.3%" y="-30.3%" width="140.6%" height="160.6%" filterUnits="objectBoundingBox" id="d"><feGaussianBlur stdDeviation="1.904" in="SourceGraphic"/></filter><filter x="-29.8%" y="-29.6%" width="159.7%" height="159.3%" filterUnits="objectBoundingBox" id="e"><feGaussianBlur stdDeviation="1.904" in="SourceGraphic"/></filter><filter x="-74.2%" y="-73.7%" width="248.4%" height="247.3%" filterUnits="objectBoundingBox" id="f"><feGaussianBlur stdDeviation="1.904" in="SourceGraphic"/></filter><filter x="-212.9%" y="-214.4%" width="525.7%" height="528.8%" filterUnits="objectBoundingBox" id="g"><feGaussianBlur stdDeviation="11.474" in="SourceGraphic"/></filter><filter x="-270.5%" y="-215.4%" width="641.1%" height="530.7%" filterUnits="objectBoundingBox" id="h"><feGaussianBlur stdDeviation="11.474" in="SourceGraphic"/></filter><filter x="-272.1%" y="-215.4%" width="644.3%" height="530.7%" filterUnits="objectBoundingBox" id="i"><feGaussianBlur stdDeviation="11.474" in="SourceGraphic"/></filter><filter x="-248.4%" y="-215.4%" width="596.7%" height="530.7%" filterUnits="objectBoundingBox" id="j"><feGaussianBlur stdDeviation="11.474" in="SourceGraphic"/></filter><filter x="-279.2%" y="-208.3%" width="658.3%" height="516.6%" filterUnits="objectBoundingBox" id="k"><feGaussianBlur stdDeviation="11.474" in="SourceGraphic"/></filter><filter x="-116%" y="-116.9%" width="332.1%" height="333.7%" filterUnits="objectBoundingBox" id="l"><feGaussianBlur stdDeviation="6.255" in="SourceGraphic"/></filter><filter x="-147.5%" y="-117.4%" width="395%" height="334.8%" filterUnits="objectBoundingBox" id="m"><feGaussianBlur stdDeviation="6.255" in="SourceGraphic"/></filter><filter x="-148.4%" y="-117.4%" width="396.7%" height="334.8%" filterUnits="objectBoundingBox" id="n"><feGaussianBlur stdDeviation="6.255" in="SourceGraphic"/></filter><filter x="-135.4%" y="-117.4%" width="370.8%" height="334.8%" filterUnits="objectBoundingBox" id="o"><feGaussianBlur stdDeviation="6.255" in="SourceGraphic"/></filter><filter x="-152.2%" y="-113.5%" width="404.4%" height="327.1%" filterUnits="objectBoundingBox" id="p"><feGaussianBlur stdDeviation="6.255" in="SourceGraphic"/></filter><filter x="-36.5%" y="-36.8%" width="173%" height="173.5%" filterUnits="objectBoundingBox" id="q"><feGaussianBlur stdDeviation="1.968" in="SourceGraphic"/></filter><filter x="-46.4%" y="-36.9%" width="192.8%" height="173.9%" filterUnits="objectBoundingBox" id="r"><feGaussianBlur stdDeviation="1.968" in="SourceGraphic"/></filter><filter x="-46.7%" y="-36.9%" width="193.4%" height="173.9%" filterUnits="objectBoundingBox" id="s"><feGaussianBlur stdDeviation="1.968" in="SourceGraphic"/></filter><filter x="-42.6%" y="-36.9%" width="185.2%" height="173.9%" filterUnits="objectBoundingBox" id="t"><feGaussianBlur stdDeviation="1.968" in="SourceGraphic"/></filter><filter x="-47.9%" y="-35.7%" width="195.8%" height="171.5%" filterUnits="objectBoundingBox" id="u"><feGaussianBlur stdDeviation="1.968" in="SourceGraphic"/></filter><filter x="-239%" y="-286.7%" width="577.9%" height="673.5%" filterUnits="objectBoundingBox" id="v"><feGaussianBlur stdDeviation="14.784" in="SourceGraphic"/></filter><filter x="-406.2%" y="-299.7%" width="912.3%" height="699.4%" filterUnits="objectBoundingBox" id="w"><feGaussianBlur stdDeviation="14.784" in="SourceGraphic"/></filter><filter x="-351.6%" y="-279.6%" width="803.2%" height="659.2%" filterUnits="objectBoundingBox" id="x"><feGaussianBlur stdDeviation="14.784" in="SourceGraphic"/></filter><filter x="-387.2%" y="-287.3%" width="874.5%" height="674.6%" filterUnits="objectBoundingBox" id="y"><feGaussianBlur stdDeviation="14.784" in="SourceGraphic"/></filter><filter x="-338.7%" y="-281.6%" width="777.4%" height="663.3%" filterUnits="objectBoundingBox" id="z"><feGaussianBlur stdDeviation="14.784" in="SourceGraphic"/></filter><filter x="-338.8%" y="-281.6%" width="777.5%" height="663.2%" filterUnits="objectBoundingBox" id="A"><feGaussianBlur stdDeviation="14.784" in="SourceGraphic"/></filter><filter x="-496.5%" y="-512.1%" width="1093.1%" height="1124.2%" filterUnits="objectBoundingBox" id="B"><feGaussianBlur stdDeviation="14.784" in="SourceGraphic"/></filter><filter x="-102.3%" y="-453.4%" width="304.7%" height="1006.8%" filterUnits="objectBoundingBox" id="C"><feGaussianBlur stdDeviation="14.784" in="SourceGraphic"/></filter><filter x="-41.9%" y="-50.2%" width="183.8%" height="200.5%" filterUnits="objectBoundingBox" id="D"><feGaussianBlur stdDeviation="2.508" in="SourceGraphic"/></filter><filter x="-71.2%" y="-52.5%" width="242.4%" height="205%" filterUnits="objectBoundingBox" id="E"><feGaussianBlur stdDeviation="2.508" in="SourceGraphic"/></filter><filter x="-61.6%" y="-49%" width="223.2%" height="198%" filterUnits="objectBoundingBox" id="F"><feGaussianBlur stdDeviation="2.508" in="SourceGraphic"/></filter><filter x="-67.9%" y="-50.3%" width="235.7%" height="200.7%" filterUnits="objectBoundingBox" id="G"><feGaussianBlur stdDeviation="2.508" in="SourceGraphic"/></filter><filter x="-59.4%" y="-49.4%" width="218.7%" height="198.7%" filterUnits="objectBoundingBox" id="H"><feGaussianBlur stdDeviation="2.508" in="SourceGraphic"/></filter><filter x="-59.4%" y="-49.3%" width="218.7%" height="198.7%" filterUnits="objectBoundingBox" id="I"><feGaussianBlur stdDeviation="2.508" in="SourceGraphic"/></filter><filter x="-87%" y="-89.7%" width="274%" height="279.5%" filterUnits="objectBoundingBox" id="J"><feGaussianBlur stdDeviation="2.508" in="SourceGraphic"/></filter><filter x="-17.9%" y="-79.5%" width="135.9%" height="258.9%" filterUnits="objectBoundingBox" id="K"><feGaussianBlur stdDeviation="2.508" in="SourceGraphic"/></filter><filter x="-49.7%" y="-180%" width="199.4%" height="459.9%" filterUnits="objectBoundingBox" id="L"><feGaussianBlur stdDeviation="16.589" in="SourceGraphic"/></filter><filter x="-10%" y="-36.1%" width="119.9%" height="172.1%" filterUnits="objectBoundingBox" id="M"><feGaussianBlur stdDeviation="2.839" in="SourceGraphic"/></filter><filter x="-57.1%" y="-137.7%" width="214.2%" height="375.5%" filterUnits="objectBoundingBox" id="N"><feGaussianBlur stdDeviation="12.756" in="SourceGraphic"/></filter><filter x="-71.3%" y="-171.9%" width="242.5%" height="443.7%" filterUnits="objectBoundingBox" id="O"><feGaussianBlur stdDeviation="15.941" in="SourceGraphic"/></filter><filter x="-7.6%" y="-18.3%" width="115.2%" height="136.6%" filterUnits="objectBoundingBox" id="P"><feGaussianBlur stdDeviation="1.608" in="SourceGraphic"/></filter><filter x="-37%" y="-101.7%" width="174%" height="303.3%" filterUnits="objectBoundingBox" id="Q"><feGaussianBlur stdDeviation="9.503" in="SourceGraphic"/></filter><filter x="-59.2%" y="-162.7%" width="218.4%" height="425.3%" filterUnits="objectBoundingBox" id="R"><feGaussianBlur stdDeviation="15.262" in="SourceGraphic"/></filter><filter x="-15.4%" y="-42.3%" width="130.8%" height="184.6%" filterUnits="objectBoundingBox" id="S"><feGaussianBlur stdDeviation="3.896" in="SourceGraphic"/></filter><filter x="-286.2%" y="-248.6%" width="672.4%" height="597.3%" filterUnits="objectBoundingBox" id="T"><feGaussianBlur stdDeviation="6.756" in="SourceGraphic"/></filter><filter x="-62.1%" y="-248.6%" width="224.1%" height="597.3%" filterUnits="objectBoundingBox" id="U"><feGaussianBlur stdDeviation="6.756" in="SourceGraphic"/></filter><filter x="-54%" y="-46.9%" width="208.1%" height="193.9%" filterUnits="objectBoundingBox" id="V"><feGaussianBlur stdDeviation="1.194" in="SourceGraphic"/></filter><filter x="-11.7%" y="-46.9%" width="123.4%" height="193.9%" filterUnits="objectBoundingBox" id="W"><feGaussianBlur stdDeviation="1.194" in="SourceGraphic"/></filter></defs><g fill="none" fill-rule="evenodd"><g stroke="#FFF" stroke-width=".6"><g opacity=".6" fill="#A9C9FF"><path d="M0 .224v19.843h5.44V12.72h3.473v7.346h5.44V.224h-5.44V7.71H5.44V.224H0zm20.373 12.148v3.031h2.894s1.158-.117 1.158-1.632c0-1.399-1.158-1.399-1.158-1.399h-2.894zm0-7.31V8.06h2.894s1.158-.14 1.158-1.575c0-1.433-1.158-1.422-1.158-1.422h-2.894zM23.846.224c1.504 0 5.788.828 5.788 5.072 0 3.415-1.62 4.43-2.895 4.662-.925.176 2.663 0 2.663 4.28 0 6.062-5.209 5.829-5.209 5.829h-8.682V.224h8.335z" opacity=".8" filter="url(#a)" transform="translate(45.31 104.333)"/><path d="M38.779 5.144c-2.745 0-4.978 2.25-4.978 5.013s2.233 5.012 4.978 5.012c2.744 0 4.976-2.249 4.976-5.012 0-2.764-2.232-5.013-4.976-5.013m0 15.156c-5.553 0-10.072-4.55-10.072-10.143C28.707 4.565 33.226.014 38.78.014c5.553 0 10.07 4.55 10.07 10.143 0 5.592-4.517 10.143-10.07 10.143" opacity=".8" filter="url(#b)" transform="translate(45.31 104.333)"/><path d="M38.778 6.076c2.237 0 4.051 1.828 4.051 4.08 0 2.254-1.814 4.082-4.05 4.082-2.238 0-4.052-1.828-4.052-4.082 0-2.252 1.814-4.08 4.051-4.08" opacity=".8" filter="url(#c)" transform="translate(45.31 104.333)"/></g><g opacity=".4" fill="#FFF"><path d="M0 .224v19.843h5.44V12.72h3.473v7.346h5.44V.224h-5.44V7.71H5.44V.224H0zm20.373 12.148v3.031h2.894s1.158-.117 1.158-1.632c0-1.399-1.158-1.399-1.158-1.399h-2.894zm0-7.31V8.06h2.894s1.158-.14 1.158-1.575c0-1.433-1.158-1.422-1.158-1.422h-2.894zM23.846.224c1.504 0 5.788.828 5.788 5.072 0 3.415-1.62 4.43-2.895 4.662-.925.176 2.663 0 2.663 4.28 0 6.062-5.209 5.829-5.209 5.829h-8.682V.224h8.335z" opacity=".75" filter="url(#d)" transform="translate(45.31 104.333)"/><path d="M38.779 5.144c-2.745 0-4.978 2.25-4.978 5.013s2.233 5.012 4.978 5.012c2.744 0 4.976-2.249 4.976-5.012 0-2.764-2.232-5.013-4.976-5.013m0 15.156c-5.553 0-10.072-4.55-10.072-10.143C28.707 4.565 33.226.014 38.78.014c5.553 0 10.07 4.55 10.07 10.143 0 5.592-4.517 10.143-10.07 10.143" opacity=".75" filter="url(#e)" transform="translate(45.31 104.333)"/><path d="M38.778 6.076c2.237 0 4.051 1.828 4.051 4.08 0 2.254-1.814 4.082-4.05 4.082-2.238 0-4.052-1.828-4.052-4.082 0-2.252 1.814-4.08 4.051-4.08" opacity=".75" filter="url(#f)" transform="translate(45.31 104.333)"/></g><g fill="#FFF"><path d="M45.31 104.558V124.4h5.44v-7.345h3.473v7.345h5.44v-19.842h-5.44v7.484H50.75v-7.484h-5.44zm20.373 12.147v3.032h2.894s1.158-.117 1.158-1.632c0-1.4-1.158-1.4-1.158-1.4h-2.894zm0-7.31v2.997h2.894s1.158-.14 1.158-1.574c0-1.434-1.158-1.423-1.158-1.423h-2.894zm3.473-4.837c1.504 0 5.788.827 5.788 5.071 0 3.415-1.62 4.43-2.895 4.663-.925.175 2.662 0 2.662 4.279 0 6.062-5.208 5.829-5.208 5.829h-8.682v-19.842h8.335z"/><path d="M84.088 109.478c-2.744 0-4.977 2.248-4.977 5.012 0 2.764 2.233 5.012 4.977 5.012 2.745 0 4.977-2.248 4.977-5.012 0-2.764-2.232-5.012-4.977-5.012m0 15.156c-5.553 0-10.071-4.551-10.071-10.144 0-5.592 4.518-10.143 10.071-10.143 5.554 0 10.071 4.551 10.071 10.143 0 5.593-4.517 10.144-10.07 10.144"/><path d="M87.676 114.56c0 2.063-1.612 3.738-3.6 3.738-1.989 0-3.601-1.675-3.601-3.739 0-2.063 1.612-3.737 3.6-3.737 1.989 0 3.6 1.674 3.6 3.737z"/></g></g><g opacity=".97" fill="#FFF"><g opacity=".5"><path d="M22.746 16.458h3.347l1.256-2.495h6.917l1.26 2.495h3.39L30.81.403l-8.063 16.055zm8.063-9.342l1.977 3.919h-3.955l1.978-3.919z" filter="url(#g)" transform="translate(133.143 68.667)"/><path filter="url(#h)" d="M12.882.476v2.931h4.738v13.05h3.25V3.408h4.735V.477z" transform="translate(133.143 68.667)"/><path d="M45.283 7.5h-2.365V3.407h2.365c1.744 0 2.705.704 2.705 2.038 0 1.325-1.012 2.055-2.705 2.055m5.976-2.138c0-1.406-.51-2.615-1.473-3.494C48.787.958 47.372.476 45.69.476h-6.02v15.982h3.248V10.63h2.316l3.358 5.828h3.725L48.52 9.845c2.39-1.118 2.74-3.298 2.74-4.483" filter="url(#i)" transform="translate(133.143 68.667)"/><path filter="url(#j)" d="M66.93.476H53.72v2.93h7.553L53.07 16.458h13.691v-2.93h-8.035z" transform="translate(133.143 68.667)"/><path d="M7.153 6.995C4.531 6.373 3.601 5.948 3.601 4.74c0-1.006.931-1.647 2.317-1.647 2.116 0 4.012 1.46 4.523 1.894l1.357-2.753C10.113.887 8.18.204 5.962.204 2.686.204.398 2.166.398 4.962c0 3.058 1.972 4.11 5.378 4.932 2.85.657 3.35 1.224 3.35 2.165 0 1.116-.997 1.781-2.54 1.781-1.904 0-3.463-.727-5.252-2.395L0 14.3c1.857 1.593 4.12 2.428 6.52 2.428 3.53 0 5.81-1.9 5.81-4.937 0-2.5-1.5-3.903-5.177-4.797" filter="url(#k)" transform="translate(133.143 68.667)"/></g><g opacity=".5"><path d="M22.746 16.458h3.347l1.256-2.495h6.917l1.26 2.495h3.39L30.81.403l-8.063 16.055zm8.063-9.342l1.977 3.919h-3.955l1.978-3.919z" filter="url(#l)" transform="translate(133.143 68.667)"/><path filter="url(#m)" d="M12.882.476v2.931h4.738v13.05h3.25V3.408h4.735V.477z" transform="translate(133.143 68.667)"/><path d="M45.283 7.5h-2.365V3.407h2.365c1.744 0 2.705.704 2.705 2.038 0 1.325-1.012 2.055-2.705 2.055m5.976-2.138c0-1.406-.51-2.615-1.473-3.494C48.787.958 47.372.476 45.69.476h-6.02v15.982h3.248V10.63h2.316l3.358 5.828h3.725L48.52 9.845c2.39-1.118 2.74-3.298 2.74-4.483" filter="url(#n)" transform="translate(133.143 68.667)"/><path filter="url(#o)" d="M66.93.476H53.72v2.93h7.553L53.07 16.458h13.691v-2.93h-8.035z" transform="translate(133.143 68.667)"/><path d="M7.153 6.995C4.531 6.373 3.601 5.948 3.601 4.74c0-1.006.931-1.647 2.317-1.647 2.116 0 4.012 1.46 4.523 1.894l1.357-2.753C10.113.887 8.18.204 5.962.204 2.686.204.398 2.166.398 4.962c0 3.058 1.972 4.11 5.378 4.932 2.85.657 3.35 1.224 3.35 2.165 0 1.116-.997 1.781-2.54 1.781-1.904 0-3.463-.727-5.252-2.395L0 14.3c1.857 1.593 4.12 2.428 6.52 2.428 3.53 0 5.81-1.9 5.81-4.937 0-2.5-1.5-3.903-5.177-4.797" filter="url(#p)" transform="translate(133.143 68.667)"/></g><g opacity=".6"><path d="M22.746 16.458h3.347l1.256-2.495h6.917l1.26 2.495h3.39L30.81.403l-8.063 16.055zm8.063-9.342l1.977 3.919h-3.955l1.978-3.919z" filter="url(#q)" transform="translate(133.143 68.667)"/><path filter="url(#r)" d="M12.882.476v2.931h4.738v13.05h3.25V3.408h4.735V.477z" transform="translate(133.143 68.667)"/><path d="M45.283 7.5h-2.365V3.407h2.365c1.744 0 2.705.704 2.705 2.038 0 1.325-1.012 2.055-2.705 2.055m5.976-2.138c0-1.406-.51-2.615-1.473-3.494C48.787.958 47.372.476 45.69.476h-6.02v15.982h3.248V10.63h2.316l3.358 5.828h3.725L48.52 9.845c2.39-1.118 2.74-3.298 2.74-4.483" filter="url(#s)" transform="translate(133.143 68.667)"/><path filter="url(#t)" d="M66.93.476H53.72v2.93h7.553L53.07 16.458h13.691v-2.93h-8.035z" transform="translate(133.143 68.667)"/><path d="M7.153 6.995C4.531 6.373 3.601 5.948 3.601 4.74c0-1.006.931-1.647 2.317-1.647 2.116 0 4.012 1.46 4.523 1.894l1.357-2.753C10.113.887 8.18.204 5.962.204 2.686.204.398 2.166.398 4.962c0 3.058 1.972 4.11 5.378 4.932 2.85.657 3.35 1.224 3.35 2.165 0 1.116-.997 1.781-2.54 1.781-1.904 0-3.463-.727-5.252-2.395L0 14.3c1.857 1.593 4.12 2.428 6.52 2.428 3.53 0 5.81-1.9 5.81-4.937 0-2.5-1.5-3.903-5.177-4.797" filter="url(#u)" transform="translate(133.143 68.667)"/></g><path d="M155.889 85.125h3.347l1.256-2.495h6.916l1.26 2.495h3.39l-8.106-16.055-8.063 16.055zm8.063-9.342l1.977 3.918h-3.955l1.978-3.918zm-17.927-6.64v2.931h4.738v13.05h3.249v-13.05h4.736v-2.931zm32.401 7.023h-2.365v-4.092h2.365c1.743 0 2.705.703 2.705 2.038 0 1.324-1.012 2.054-2.705 2.054m5.976-2.137c0-1.406-.51-2.615-1.474-3.494-.998-.911-2.414-1.392-4.095-1.392h-6.02v15.982h3.248v-5.828h2.315l3.359 5.828h3.725l-3.799-6.613c2.391-1.119 2.74-3.298 2.74-4.483m15.671-4.886h-13.21v2.93h7.554l-8.203 13.052h13.69v-2.93h-8.035zm-59.776 6.518c-2.622-.621-3.552-1.046-3.552-2.254 0-1.006.93-1.647 2.316-1.647 2.116 0 4.012 1.46 4.523 1.895l1.358-2.753c-1.686-1.348-3.619-2.031-5.836-2.031-3.277 0-5.564 1.961-5.564 4.758 0 3.058 1.972 4.11 5.378 4.932 2.849.657 3.35 1.223 3.35 2.165 0 1.116-.997 1.781-2.54 1.781-1.905 0-3.463-.727-5.253-2.395l-1.333 2.856c1.857 1.593 4.119 2.428 6.52 2.428 3.529 0 5.81-1.9 5.81-4.937 0-2.5-1.5-3.904-5.177-4.798"/></g><g stroke="#F5A623" stroke-width=".6"><g opacity=".27" fill="#FFFFDB"><path d="M34.093 3.074c0-2.862-5.854-4.803-7.736-.551-1.464-3.308-6.088-3.198-7.349.026L19.01.86a.509.509 0 0 0-.488-.49h-2.627a.508.508 0 0 0-.488.49v14.274c0 .258.232.492.488.492h2.823c.255 0 .48-.234.48-.492v-9.05c0-1.023.43-2.174 1.507-2.413 1.185-.266 2.151.393 2.151 1.767l-.001 9.696c0 .258.232.492.488.492h2.869a.51.51 0 0 0 .489-.492V5.517c0-2.181 3.612-2.744 3.612 0v9.616c0 .258.232.492.487.492h2.805a.508.508 0 0 0 .488-.492V3.074z" filter="url(#v)" transform="translate(33 69.667)"/><path d="M62.163.884a.507.507 0 0 0-.488-.489h-9.284a.492.492 0 0 0-.347.145.485.485 0 0 0-.13.349V2.87c0 .254.245.483.5.483h4.88l-5.56 8.18c-.318.467-.264.758-.264.854l.004 2.276c0 .49.181.704.737.469 3.4-1.444 7.024-1.53 9.755.11.224.138.494-.009.494-.392v-2.557a.49.49 0 0 0-.228-.412c-1.578-1-3.583-1.268-5.53-1.237l5.198-7.26c.25-.349.263-.72.263-.822V.884z" filter="url(#w)" transform="translate(33 69.667)"/><path d="M76.476 7.968c0-4.554-2.66-8.012-6.35-7.968-3.71.042-6.355 3.542-6.35 7.998.006 4.573 2.704 8.069 6.416 7.97 3.696-.103 6.287-3.58 6.284-8m-4.179.048c0 2.767-.098 5.007-2.17 5.007-1.975 0-2.172-2.24-2.172-5.007 0-2.766.165-5.042 2.172-5.01 1.94.033 2.17 2.244 2.17 5.01" filter="url(#x)" transform="translate(33 69.667)"/><path d="M89.982 4.132c0-2.263-1.364-4.131-4.555-4.033-1.481.046-2.636 1.177-3.277 2.777V.82a.506.506 0 0 0-.487-.49H78.94a.507.507 0 0 0-.488.49v14.328c0 .256.233.49.488.49h2.849a.507.507 0 0 0 .488-.49v-9c0-1.34 1.143-2.472 2.197-2.513.869-.031 1.738.808 1.738 1.755v9.758c0 .256.233.49.487.49h2.796a.508.508 0 0 0 .488-.49V4.132z" filter="url(#y)" transform="translate(33 69.667)"/><path d="M48.594 3.828c0-2.407-2.073-3.94-6.09-3.798-2.453.087-4.786 1.002-5.388 3.98a.502.502 0 0 0 .084.387.484.484 0 0 0 .34.197l2.5.287a.507.507 0 0 0 .534-.388c.18-.937.89-1.633 1.93-1.633 1.55 0 2.221.803 2.221 1.865v1.393l-3.09.236c-2.614.2-5.046 1.911-5.098 5.193-.046 3.02 1.95 4.46 4.676 4.32 1.621-.088 3.037-.784 4.11-1.984l1.542 1.725a.505.505 0 0 0 .344.162.498.498 0 0 0 .356-.137l2.008-1.927a.51.51 0 0 0 .059-.642l-.739-.976c-.15-.199-.3-1.08-.3-1.58v-6.68zm-3.836 4.399v1.856c0 1.44-.95 2.666-1.736 2.903-1.547.47-2.553-.74-2.515-2.03.048-1.627 1.474-2.621 2.678-2.665l1.573-.064z" filter="url(#z)" transform="translate(33 69.667)"/><path d="M12.057 3.825c0-2.409-2.073-3.94-6.09-3.8C3.515.11 1.182 1.029.58 4.008a.498.498 0 0 0 .084.384c.079.11.205.186.34.2l2.501.287a.507.507 0 0 0 .533-.392c.181-.936.89-1.629 1.93-1.629 1.55 0 2.221.8 2.221 1.865v1.393l-3.09.235C2.484 6.55.052 8.26.001 11.543c-.047 3.023 1.95 4.46 4.674 4.319 1.623-.085 3.038-.781 4.11-1.983l1.543 1.724a.505.505 0 0 0 .345.165.488.488 0 0 0 .355-.137l2.008-1.93a.505.505 0 0 0 .058-.64l-.739-.975c-.148-.2-.298-1.082-.298-1.583V3.825zM8.222 8.227v1.853c0 1.438-.95 2.664-1.736 2.902-1.548.47-2.553-.74-2.516-2.03.048-1.628 1.474-2.62 2.678-2.666l1.574-.059z" filter="url(#A)" transform="translate(33 69.667)"/><path d="M56.787 24.265c-.57 1.374.82.478.992.32 1.878-1.706 3.26-6.833 2.41-7.616-1.072-.985-6.049-.976-8.255.64-.92.679-.404.81.567.748 1.7-.105 3.229-.217 4.534-.105 1.24.105 1.31.714.994 2.03-.37 1.525-.604 2.455-1.242 3.983" filter="url(#B)" transform="translate(33 69.667)"/><path d="M54.749 20.138c-12.84 5.268-27.653 4.535-39.839-1.918-.168-.09-.764-.433-1.445-.774-.532-.27-.633-.18-.718-.086-.12.131-.074.364.114.536 7.157 6.477 15.76 9.593 25.151 9.182 7.171-.314 13.852-2.956 17.678-5.766.564-.415.766-.956.532-1.208-.241-.26-.877-.212-1.473.034" filter="url(#C)" transform="translate(33 69.667)"/></g><g opacity=".696" fill="#FED55B"><path d="M34.093 3.074c0-2.862-5.854-4.803-7.736-.551-1.464-3.308-6.088-3.198-7.349.026L19.01.86a.509.509 0 0 0-.488-.49h-2.627a.508.508 0 0 0-.488.49v14.274c0 .258.232.492.488.492h2.823c.255 0 .48-.234.48-.492v-9.05c0-1.023.43-2.174 1.507-2.413 1.185-.266 2.151.393 2.151 1.767l-.001 9.696c0 .258.232.492.488.492h2.869a.51.51 0 0 0 .489-.492V5.517c0-2.181 3.612-2.744 3.612 0v9.616c0 .258.232.492.487.492h2.805a.508.508 0 0 0 .488-.492V3.074z" filter="url(#D)" transform="translate(33 69.667)"/><path d="M62.163.884a.507.507 0 0 0-.488-.489h-9.284a.492.492 0 0 0-.347.145.485.485 0 0 0-.13.349V2.87c0 .254.245.483.5.483h4.88l-5.56 8.18c-.318.467-.264.758-.264.854l.004 2.276c0 .49.181.704.737.469 3.4-1.444 7.024-1.53 9.755.11.224.138.494-.009.494-.392v-2.557a.49.49 0 0 0-.228-.412c-1.578-1-3.583-1.268-5.53-1.237l5.198-7.26c.25-.349.263-.72.263-.822V.884z" filter="url(#E)" transform="translate(33 69.667)"/><path d="M76.476 7.968c0-4.554-2.66-8.012-6.35-7.968-3.71.042-6.355 3.542-6.35 7.998.006 4.573 2.704 8.069 6.416 7.97 3.696-.103 6.287-3.58 6.284-8m-4.179.048c0 2.767-.098 5.007-2.17 5.007-1.975 0-2.172-2.24-2.172-5.007 0-2.766.165-5.042 2.172-5.01 1.94.033 2.17 2.244 2.17 5.01" filter="url(#F)" transform="translate(33 69.667)"/><path d="M89.982 4.132c0-2.263-1.364-4.131-4.555-4.033-1.481.046-2.636 1.177-3.277 2.777V.82a.506.506 0 0 0-.487-.49H78.94a.507.507 0 0 0-.488.49v14.328c0 .256.233.49.488.49h2.849a.507.507 0 0 0 .488-.49v-9c0-1.34 1.143-2.472 2.197-2.513.869-.031 1.738.808 1.738 1.755v9.758c0 .256.233.49.487.49h2.796a.508.508 0 0 0 .488-.49V4.132z" filter="url(#G)" transform="translate(33 69.667)"/><path d="M48.594 3.828c0-2.407-2.073-3.94-6.09-3.798-2.453.087-4.786 1.002-5.388 3.98a.502.502 0 0 0 .084.387.484.484 0 0 0 .34.197l2.5.287a.507.507 0 0 0 .534-.388c.18-.937.89-1.633 1.93-1.633 1.55 0 2.221.803 2.221 1.865v1.393l-3.09.236c-2.614.2-5.046 1.911-5.098 5.193-.046 3.02 1.95 4.46 4.676 4.32 1.621-.088 3.037-.784 4.11-1.984l1.542 1.725a.505.505 0 0 0 .344.162.498.498 0 0 0 .356-.137l2.008-1.927a.51.51 0 0 0 .059-.642l-.739-.976c-.15-.199-.3-1.08-.3-1.58v-6.68zm-3.836 4.399v1.856c0 1.44-.95 2.666-1.736 2.903-1.547.47-2.553-.74-2.515-2.03.048-1.627 1.474-2.621 2.678-2.665l1.573-.064z" filter="url(#H)" transform="translate(33 69.667)"/><path d="M12.057 3.825c0-2.409-2.073-3.94-6.09-3.8C3.515.11 1.182 1.029.58 4.008a.498.498 0 0 0 .084.384c.079.11.205.186.34.2l2.501.287a.507.507 0 0 0 .533-.392c.181-.936.89-1.629 1.93-1.629 1.55 0 2.221.8 2.221 1.865v1.393l-3.09.235C2.484 6.55.052 8.26.001 11.543c-.047 3.023 1.95 4.46 4.674 4.319 1.623-.085 3.038-.781 4.11-1.983l1.543 1.724a.505.505 0 0 0 .345.165.488.488 0 0 0 .355-.137l2.008-1.93a.505.505 0 0 0 .058-.64l-.739-.975c-.148-.2-.298-1.082-.298-1.583V3.825zM8.222 8.227v1.853c0 1.438-.95 2.664-1.736 2.902-1.548.47-2.553-.74-2.516-2.03.048-1.628 1.474-2.62 2.678-2.666l1.574-.059z" filter="url(#I)" transform="translate(33 69.667)"/><path d="M56.787 24.265c-.57 1.374.82.478.992.32 1.878-1.706 3.26-6.833 2.41-7.616-1.072-.985-6.049-.976-8.255.64-.92.679-.404.81.567.748 1.7-.105 3.229-.217 4.534-.105 1.24.105 1.31.714.994 2.03-.37 1.525-.604 2.455-1.242 3.983" filter="url(#J)" transform="translate(33 69.667)"/><path d="M54.749 20.138c-12.84 5.268-27.653 4.535-39.839-1.918-.168-.09-.764-.433-1.445-.774-.532-.27-.633-.18-.718-.086-.12.131-.074.364.114.536 7.157 6.477 15.76 9.593 25.151 9.182 7.171-.314 13.852-2.956 17.678-5.766.564-.415.766-.956.532-1.208-.241-.26-.877-.212-1.473.034" filter="url(#K)" transform="translate(33 69.667)"/></g><g fill="#FFFFDB"><path d="M67.093 72.74c0-2.862-5.854-4.803-7.736-.55-1.464-3.308-6.088-3.198-7.349.026l.002-1.69a.509.509 0 0 0-.488-.49h-2.627a.508.508 0 0 0-.488.49V84.8c0 .257.232.491.488.491h2.823c.255 0 .48-.234.48-.491v-9.05c0-1.023.43-2.175 1.507-2.414 1.185-.265 2.151.393 2.151 1.768l-.001 9.696c0 .257.232.491.488.491h2.869a.51.51 0 0 0 .489-.491v-9.616c0-2.181 3.612-2.745 3.612 0V84.8c0 .257.232.491.487.491h2.805a.508.508 0 0 0 .488-.491V72.74zm28.07-2.19a.507.507 0 0 0-.488-.488h-9.284a.492.492 0 0 0-.347.145.485.485 0 0 0-.13.349v1.981c0 .255.245.483.5.483h4.88l-5.56 8.18c-.318.468-.264.759-.264.855l.004 2.276c0 .489.181.703.737.468 3.4-1.444 7.024-1.53 9.755.111.224.137.494-.009.494-.392V81.96a.49.49 0 0 0-.228-.412c-1.578-1-3.583-1.268-5.53-1.237l5.198-7.26c.25-.35.263-.72.263-.822v-1.68zm14.313 7.084c0-4.553-2.66-8.01-6.35-7.967-3.71.042-6.355 3.542-6.35 7.997.006 4.573 2.704 8.07 6.416 7.97 3.696-.102 6.287-3.58 6.284-8m-4.179.049c0 2.766-.098 5.006-2.17 5.006-1.975 0-2.172-2.24-2.172-5.006s.165-5.042 2.172-5.01c1.94.033 2.17 2.244 2.17 5.01m17.685-3.884c0-2.263-1.364-4.131-4.555-4.033-1.481.045-2.636 1.176-3.277 2.777v-2.057a.506.506 0 0 0-.487-.49h-2.724a.507.507 0 0 0-.488.49v14.328c0 .256.233.49.488.49h2.849a.507.507 0 0 0 .488-.49v-9c0-1.34 1.143-2.473 2.197-2.513.869-.032 1.738.807 1.738 1.754v9.759c0 .256.233.49.487.49h2.796a.508.508 0 0 0 .488-.49V73.799zm-41.388-.304c0-2.407-2.073-3.94-6.09-3.798-2.453.087-4.786 1.001-5.388 3.98a.502.502 0 0 0 .084.387.484.484 0 0 0 .34.197l2.5.287a.507.507 0 0 0 .534-.388c.18-.938.89-1.633 1.93-1.633 1.55 0 2.221.803 2.221 1.864v1.393l-3.09.237c-2.614.2-5.046 1.91-5.098 5.193-.046 3.02 1.95 4.46 4.676 4.319 1.621-.087 3.037-.784 4.11-1.983l1.542 1.724a.505.505 0 0 0 .344.163.498.498 0 0 0 .356-.137l2.008-1.927a.51.51 0 0 0 .059-.642l-.739-.976c-.15-.2-.3-1.08-.3-1.58v-6.68zm-3.836 4.399v1.856c0 1.44-.95 2.666-1.736 2.903-1.547.47-2.553-.74-2.515-2.03.048-1.627 1.474-2.622 2.678-2.666l1.573-.063zm-32.701-4.403c0-2.408-2.073-3.94-6.09-3.8-2.453.087-4.786 1.005-5.388 3.983a.498.498 0 0 0 .084.385c.079.11.205.185.34.2l2.501.287a.507.507 0 0 0 .533-.392c.181-.936.89-1.63 1.93-1.63 1.55 0 2.221.801 2.221 1.865v1.393l-3.09.236c-2.614.199-5.046 1.91-5.097 5.191-.047 3.024 1.95 4.46 4.674 4.32 1.623-.085 3.038-.782 4.11-1.983l1.543 1.724a.505.505 0 0 0 .345.164.488.488 0 0 0 .355-.136l2.008-1.93a.505.505 0 0 0 .058-.64l-.739-.975c-.148-.2-.298-1.083-.298-1.583v-6.68zm-3.835 4.403v1.853c0 1.438-.95 2.664-1.736 2.902-1.548.469-2.553-.741-2.516-2.03.048-1.628 1.474-2.62 2.678-2.666l1.574-.06zm48.565 16.038c-.57 1.373.82.477.992.32 1.878-1.706 3.26-6.833 2.41-7.616-1.072-.985-6.049-.976-8.255.64-.92.679-.404.81.567.748 1.7-.105 3.229-.218 4.534-.105 1.24.105 1.31.713.994 2.029-.37 1.526-.604 2.455-1.242 3.984"/><path d="M87.749 89.805c-12.84 5.268-27.653 4.534-39.839-1.918-.168-.09-.764-.434-1.445-.774-.532-.27-.633-.18-.718-.086-.12.13-.074.364.114.535 7.157 6.477 15.76 9.593 25.151 9.183 7.171-.314 13.852-2.956 17.678-5.766.564-.415.766-.956.532-1.208-.241-.26-.877-.212-1.473.034"/></g></g><path d="M99.22 13.65l5.966 16.127-1.507-.206a75.313 75.313 0 0 1-2.496-.39l-1.252-.217a282.94 282.94 0 0 0-1.214-.21l-.514-.088-2.526-6.644-2.604 6.186-.717-.127c-.662-.117-1.305-.2-2.294-.307l-.399-.042a53.73 53.73 0 0 1-1.986-.234l-1.183-.166 5.97-13.888L87.03-.912h6.661l2.276 5.958 2.428-5.958h6.765L99.22 13.65zM80.24 26.946l-.857-.052V-.912h6.126v28.308l-1.02-.12a44.074 44.074 0 0 0-1.716-.165c-.67-.052-1.02-.074-2.466-.161l-.067-.004zm-10.18-6.921c.317.01.643.024.98.04.974.044 1.809.092 3.458.196 1.187.075 1.57.099 2.152.132l.86.049V26.7l-.97-.062-.093-.006c-5.811-.374-8.412-.513-11.702-.58l-.893-.02V-.911h6.208v20.937zM54.992 9.277h5.998v6.304h-5.998v10.163h-6.126V-.912h14.07v6.304h-7.944v3.885zm-11.67-3.885v20.604h-.913c-2.208 0-3.177.009-4.348.055l-.948.037V5.392h-4.548V-.912H47.87v6.304h-4.55zM23.814 9.58c.475-.006 1.05-.016 1.829-.031l.223-.005c1.63-.032 2.242-.042 2.898-.042h.913v6.303h-.913c-1.019 0-1.49 0-2.075.003-1.14.006-2.083.02-2.875.044v4.812l1.268-.09c2.743-.196 3.988-.273 5.544-.323l.941-.03v6.095l-13.962 1.127V-.912h13.962v6.304h-7.753V9.58zM5.377 18.01v10.861l-.815.087a73.23 73.23 0 0 0-3.163.42 296.8 296.8 0 0 0-.628.094l-.634.097-1.05.16V-.913h5.725L8.95 10.9V-.912h6.235V27.58l-.75.135c-.797.143-1.46.224-2.844.367a56.41 56.41 0 0 0-1.989.227l-.749.102L5.377 18.01z" stroke="#FF001F" stroke-width="1.825" fill="#FFE2E6" opacity=".7" filter="url(#L)" transform="translate(104.198 98)"/><path d="M99.22 13.65l5.966 16.127-1.507-.206a75.313 75.313 0 0 1-2.496-.39l-1.252-.217a282.94 282.94 0 0 0-1.214-.21l-.514-.088-2.526-6.644-2.604 6.186-.717-.127c-.662-.117-1.305-.2-2.294-.307l-.399-.042a53.73 53.73 0 0 1-1.986-.234l-1.183-.166 5.97-13.888L87.03-.912h6.661l2.276 5.958 2.428-5.958h6.765L99.22 13.65zM80.24 26.946l-.857-.052V-.912h6.126v28.308l-1.02-.12a44.074 44.074 0 0 0-1.716-.165c-.67-.052-1.02-.074-2.466-.161l-.067-.004zm-10.18-6.921c.317.01.643.024.98.04.974.044 1.809.092 3.458.196 1.187.075 1.57.099 2.152.132l.86.049V26.7l-.97-.062-.093-.006c-5.811-.374-8.412-.513-11.702-.58l-.893-.02V-.911h6.208v20.937zM54.992 9.277h5.998v6.304h-5.998v10.163h-6.126V-.912h14.07v6.304h-7.944v3.885zm-11.67-3.885v20.604h-.913c-2.208 0-3.177.009-4.348.055l-.948.037V5.392h-4.548V-.912H47.87v6.304h-4.55zM23.814 9.58c.475-.006 1.05-.016 1.829-.031l.223-.005c1.63-.032 2.242-.042 2.898-.042h.913v6.303h-.913c-1.019 0-1.49 0-2.075.003-1.14.006-2.083.02-2.875.044v4.812l1.268-.09c2.743-.196 3.988-.273 5.544-.323l.941-.03v6.095l-13.962 1.127V-.912h13.962v6.304h-7.753V9.58zM5.377 18.01v10.861l-.815.087a73.23 73.23 0 0 0-3.163.42 296.8 296.8 0 0 0-.628.094l-.634.097-1.05.16V-.913h5.725L8.95 10.9V-.912h6.235V27.58l-.75.135c-.797.143-1.46.224-2.844.367a56.41 56.41 0 0 0-1.989.227l-.749.102L5.377 18.01z" stroke="#FF001F" stroke-width="1.825" fill="#FF1633" opacity=".45" filter="url(#M)" transform="translate(104.198 98)"/><path d="M202.76 111.64l5.695 15.392-.496-.068a74.738 74.738 0 0 1-2.475-.387l-1.25-.217c-.605-.105-.878-.153-1.216-.21l-.17-.03-2.945-7.745-3.007 7.145-.236-.042a33.42 33.42 0 0 0-2.335-.313l-.4-.042a53.262 53.262 0 0 1-1.965-.231l-.39-.055 5.752-13.379-5.208-13.758h5.353l2.679 7.013 2.859-7.013h5.441l-5.685 13.94zm-18.284 12.694l-.282-.017V97.7h4.901v27.007l-.335-.04a44.672 44.672 0 0 0-1.74-.166 122.12 122.12 0 0 0-2.477-.163l-.067-.004zm-10.831-5.715a79.85 79.85 0 0 1 1.563.057c.97.044 1.802.093 3.449.196 1.188.075 1.571.099 2.155.132l.283.016v5.027l-.32-.02-.092-.006c-5.82-.375-8.427-.514-11.728-.582l-.294-.006V97.7h4.984v20.919zm-15.068-10.73h5.998v5.08h-5.998v10.162h-4.901V97.7h12.846v5.08h-7.945v5.11zm-11.67-5.11v20.604h-.3c-2.217 0-3.19.01-4.372.056l-.312.012v-20.672h-4.547V97.7h14.078v5.08h-4.547zm-19.507 5.419c.6-.003 1.306-.014 2.454-.037l.223-.005c1.626-.032 2.235-.042 2.886-.042h.3v5.078h-.3c-1.02 0-1.493 0-2.079.004a92.167 92.167 0 0 0-3.484.067v6.057c.493-.033.987-.068 1.924-.135 2.735-.196 3.975-.272 5.52-.321l.31-.01v4.897l-12.738 1.028V97.7h12.738v5.08H127.4v5.418zm-18.437 4.048v14.075l-.268.029c-.976.104-1.91.23-3.19.422l-.629.095-.633.096-.345.053V97.7h4.677l5.185 14.8V97.7h5.01v27.369l-.246.044c-.777.14-1.43.22-2.798.361a56.86 56.86 0 0 0-2.009.23l-.246.033-4.508-13.49z" stroke="#FF3E6A" stroke-width=".6" fill="#FFC6CD"/><g fill="#C6FFD8" stroke-width=".6"><path d="M41.49 27.998V0h5.251v27.998h-5.25zM0 0h5.25v9.284c.42-.245.968-.38 1.682-.38h4.027c3.14 0 5.708 2.594 5.708 5.765v13.329h-5.25V16.676c0-.963-.78-1.75-1.733-1.75H6.983c-.953 0-1.732.787-1.732 1.75v11.322H0V0zm37.21 8.903v13.33c0 3.172-2.57 5.767-5.71 5.767h-5.096c-3.14 0-5.709-2.595-5.709-5.768V8.903h5.25v11.529c0 .963.78 1.75 1.732 1.75h2.55c.952 0 1.732-.787 1.732-1.75V8.903h5.25zm30.328 0v13.33c0 3.172-2.569 5.767-5.71 5.767h-5.096c-3.139 0-5.709-2.595-5.709-5.768V8.903h5.25v11.529c0 .963.78 1.75 1.733 1.75h2.55c.953 0 1.733-.787 1.733-1.75V8.903h5.249z" stroke="#02DD38" opacity=".4" filter="url(#N)" transform="translate(83.57 132)"/><path d="M41.49 27.998V0h5.251v27.998h-5.25zM0 0h5.25v9.284c.42-.245.968-.38 1.682-.38h4.027c3.14 0 5.708 2.594 5.708 5.765v13.329h-5.25V16.676c0-.963-.78-1.75-1.733-1.75H6.983c-.953 0-1.732.787-1.732 1.75v11.322H0V0zm37.21 8.903v13.33c0 3.172-2.57 5.767-5.71 5.767h-5.096c-3.14 0-5.709-2.595-5.709-5.768V8.903h5.25v11.529c0 .963.78 1.75 1.732 1.75h2.55c.952 0 1.732-.787 1.732-1.75V8.903h5.25zm30.328 0v13.33c0 3.172-2.569 5.767-5.71 5.767h-5.096c-3.139 0-5.709-2.595-5.709-5.768V8.903h5.25v11.529c0 .963.78 1.75 1.733 1.75h2.55c.953 0 1.733-.787 1.733-1.75V8.903h5.249z" stroke="#02DD38" opacity=".4" filter="url(#O)" transform="translate(83.57 132)"/><path d="M41.49 27.998V0h5.251v27.998h-5.25zM0 0h5.25v9.284c.42-.245.968-.38 1.682-.38h4.027c3.14 0 5.708 2.594 5.708 5.765v13.329h-5.25V16.676c0-.963-.78-1.75-1.733-1.75H6.983c-.953 0-1.732.787-1.732 1.75v11.322H0V0zm37.21 8.903v13.33c0 3.172-2.57 5.767-5.71 5.767h-5.096c-3.14 0-5.709-2.595-5.709-5.768V8.903h5.25v11.529c0 .963.78 1.75 1.732 1.75h2.55c.952 0 1.732-.787 1.732-1.75V8.903h5.25zm30.328 0v13.33c0 3.172-2.569 5.767-5.71 5.767h-5.096c-3.139 0-5.709-2.595-5.709-5.768V8.903h5.25v11.529c0 .963.78 1.75 1.733 1.75h2.55c.953 0 1.733-.787 1.733-1.75V8.903h5.249z" stroke="#02DD38" opacity=".5" filter="url(#P)" transform="translate(83.57 132)"/><path d="M125.061 159.998V132h5.25v27.998h-5.25zM83.571 132h5.25v9.284c.42-.245.968-.38 1.681-.38h4.027c3.14 0 5.709 2.594 5.709 5.765v13.329h-5.25v-11.322c0-.963-.78-1.75-1.733-1.75h-2.702c-.952 0-1.732.787-1.732 1.75v11.322H83.57V132zm37.209 8.903v13.33c0 3.172-2.57 5.767-5.709 5.767h-5.097c-3.14 0-5.708-2.595-5.708-5.768v-13.329h5.25v11.529c0 .963.779 1.75 1.731 1.75h2.55c.952 0 1.732-.787 1.732-1.75v-11.529h5.25zm30.328 0v13.33c0 3.172-2.569 5.767-5.71 5.767h-5.095c-3.14 0-5.71-2.595-5.71-5.768v-13.329h5.25v11.529c0 .963.78 1.75 1.733 1.75h2.55c.953 0 1.733-.787 1.733-1.75v-11.529h5.25z" stroke="#02DD9D"/></g><g stroke-width=".6"><path d="M15.249 5.091v7.49H11.81V5.098H8.62c-.005.082-.011.146-.011.21-.001 6.064 0 12.127-.005 18.19 0 .194.058.244.242.242.917-.007 1.832-.003 2.749-.004.067 0 .136-.01.226-.016v-8.053h3.43v.3c0 2.5.005 5-.004 7.502-.001.227.068.275.276.272.887-.01 1.775-.004 2.663-.005.083 0 .166-.007.256-.012V5.09H15.25zM3.727 23.723c.325-.085.674-.131.987-.265 1.304-.552 2.118-1.585 2.482-2.932.566-2.102.099-4-1.316-5.642-.68-.789-1.529-1.377-2.353-1.992-.664-.495-1.335-.987-1.83-1.673-.552-.763-.758-1.61-.533-2.538.2-.822.856-1.223 1.623-1.022.39.101.63.373.789.731.213.483.265 1 .295 1.52.01.18.001.36.001.554H6.87c0-.258.01-.523-.002-.786-.04-.883-.155-1.754-.462-2.587C5.945 5.844 5.1 5.035 3.82 4.714c-.047-.011-.092-.025-.187-.05C6.331 1.734 9.605.106 13.515.005c4.249-.108 7.876 1.4 10.795 4.681l-.296.078c-.883.236-1.552.79-2.108 1.5-.788 1.006-1.258 2.17-1.58 3.4-.493 1.887-.626 3.81-.528 5.756.076 1.515.312 2.998.828 4.426.426 1.179 1.008 2.263 1.946 3.11.222.2.468.379.723.531.25.148.524.25.822.388-2.48 2.602-5.473 4.12-9.035 4.41-5.246.43-9.256-2.111-11.355-4.562zm33.078-11.724c-.04.259-.08.516-.118.775-.24 1.693-.478 3.387-.716 5.08a5041.16 5041.16 0 0 0-.74 5.293c-.042.308-.037.308-.347.31-.774 0-1.548-.004-2.322.001-.144.001-.209-.032-.23-.195-.143-1.16-.3-2.318-.452-3.477l-.528-4.056a5116.14 5116.14 0 0 0-.494-3.778l-.533-4.077c-.104-.794-.21-1.589-.313-2.382-.004-.034.003-.07.005-.115h2.903l1.147 10.591.075.004 1.547-10.595h2.91l1.412 10.6.067.005c.021-.103.05-.205.063-.31l.55-4.6c.176-1.49.35-2.98.525-4.472.042-.359.088-.717.127-1.075.012-.113.051-.175.171-.16.042.005.086 0 .128 0h13.892c.006.094.013.178.013.261.001 5.854 0 11.708.005 17.562 0 .204-.049.274-.258.272a96.685 96.685 0 0 0-2.706 0c-.224.003-.267-.073-.267-.283.006-4.9.005-9.801.005-14.701 0-.34 0-.34-.332-.34H49.63c-.312 0-.313 0-.313.313l-.001 14.57c0 .497.066.432-.432.435-.839.003-1.677-.007-2.514.006-.214.003-.275-.057-.275-.28.007-4.487.006-8.976.006-13.464V8.503c-.003-.401.042-.365-.35-.366h-2.13c-.05 0-.1.004-.149 0-.125-.01-.17.047-.186.174-.282 2.24-.568 4.48-.856 6.72-.32 2.49-.644 4.98-.965 7.47-.034.257-.07.516-.092.774-.011.141-.072.183-.203.182-.86-.003-1.718-.004-2.578 0-.13.001-.179-.04-.198-.181-.308-2.325-.623-4.648-.936-6.972l-.556-4.118c-.01-.062-.032-.123-.047-.184l-.049-.003zm27.717-6.622h4.192v18.06c-.087.007-.169.018-.25.018-.783 0-1.563-.007-2.345.006-.213.003-.272-.058-.272-.279.006-4.235.004-8.47.004-12.704v-.268l-.063-.006c-.041.22-.084.442-.122.663-.588 3.565-1.174 7.129-1.763 10.693-.094.57-.197 1.137-.283 1.708-.022.15-.082.19-.22.189a49.995 49.995 0 0 0-1.427.002c-.148.002-.196-.062-.217-.196-.356-2.207-.715-4.413-1.073-6.62-.342-2.107-.686-4.214-1.029-6.32-.007-.04-.026-.077-.093-.115v12.96c0 .286-.001.287-.273.287-.61 0-1.222-.008-1.832.005-.207.005-.276-.046-.275-.274.009-2.999.006-5.998.006-8.998V5.38h4.285l1.461 9.25.077.006 1.512-9.258zm9.072 7.406h2.999v2.943h-3.004v4.952h4.245c.006.09.013.152.013.216 0 .78-.003 1.561.005 2.341.002.17-.046.224-.215.224-2.357-.005-4.714-.003-7.072-.004-.062 0-.124-.01-.197-.017V5.381h7.295v2.75h-4.07v4.652zM22.957 14.31c.01-1.746.147-3.26.71-4.695.174-.443.425-.867.71-1.245.336-.448.81-.68 1.388-.533.355.09.61.329.82.62.472.654.707 1.41.888 2.185.31 1.326.476 2.67.426 4.034-.055 1.485-.244 2.95-.852 4.321a4.431 4.431 0 0 1-.684 1.085c-.523.603-1.236.609-1.825.07-.43-.394-.68-.901-.882-1.438-.379-1.007-.547-2.059-.634-3.125-.04-.496-.05-.995-.065-1.279zM.084 13.97c.29.237.576.482.873.71.757.586 1.539 1.14 2.272 1.752.765.637 1.12 1.49 1.069 2.505-.02.401-.109.785-.324 1.128-.437.696-1.242.884-1.93.445-.413-.264-.696-.653-.93-1.08-.49-.894-.75-1.869-.882-2.873C.12 15.707.075 14.85 0 13.996l.084-.027z" stroke="#D80000" fill="#D80000" opacity=".4" filter="url(#Q)" transform="translate(89.226 34)"/><path d="M15.249 5.091v7.49H11.81V5.098H8.62c-.005.082-.011.146-.011.21-.001 6.064 0 12.127-.005 18.19 0 .194.058.244.242.242.917-.007 1.832-.003 2.749-.004.067 0 .136-.01.226-.016v-8.053h3.43v.3c0 2.5.005 5-.004 7.502-.001.227.068.275.276.272.887-.01 1.775-.004 2.663-.005.083 0 .166-.007.256-.012V5.09H15.25zM3.727 23.723c.325-.085.674-.131.987-.265 1.304-.552 2.118-1.585 2.482-2.932.566-2.102.099-4-1.316-5.642-.68-.789-1.529-1.377-2.353-1.992-.664-.495-1.335-.987-1.83-1.673-.552-.763-.758-1.61-.533-2.538.2-.822.856-1.223 1.623-1.022.39.101.63.373.789.731.213.483.265 1 .295 1.52.01.18.001.36.001.554H6.87c0-.258.01-.523-.002-.786-.04-.883-.155-1.754-.462-2.587C5.945 5.844 5.1 5.035 3.82 4.714c-.047-.011-.092-.025-.187-.05C6.331 1.734 9.605.106 13.515.005c4.249-.108 7.876 1.4 10.795 4.681l-.296.078c-.883.236-1.552.79-2.108 1.5-.788 1.006-1.258 2.17-1.58 3.4-.493 1.887-.626 3.81-.528 5.756.076 1.515.312 2.998.828 4.426.426 1.179 1.008 2.263 1.946 3.11.222.2.468.379.723.531.25.148.524.25.822.388-2.48 2.602-5.473 4.12-9.035 4.41-5.246.43-9.256-2.111-11.355-4.562zm33.078-11.724c-.04.259-.08.516-.118.775-.24 1.693-.478 3.387-.716 5.08a5041.16 5041.16 0 0 0-.74 5.293c-.042.308-.037.308-.347.31-.774 0-1.548-.004-2.322.001-.144.001-.209-.032-.23-.195-.143-1.16-.3-2.318-.452-3.477l-.528-4.056a5116.14 5116.14 0 0 0-.494-3.778l-.533-4.077c-.104-.794-.21-1.589-.313-2.382-.004-.034.003-.07.005-.115h2.903l1.147 10.591.075.004 1.547-10.595h2.91l1.412 10.6.067.005c.021-.103.05-.205.063-.31l.55-4.6c.176-1.49.35-2.98.525-4.472.042-.359.088-.717.127-1.075.012-.113.051-.175.171-.16.042.005.086 0 .128 0h13.892c.006.094.013.178.013.261.001 5.854 0 11.708.005 17.562 0 .204-.049.274-.258.272a96.685 96.685 0 0 0-2.706 0c-.224.003-.267-.073-.267-.283.006-4.9.005-9.801.005-14.701 0-.34 0-.34-.332-.34H49.63c-.312 0-.313 0-.313.313l-.001 14.57c0 .497.066.432-.432.435-.839.003-1.677-.007-2.514.006-.214.003-.275-.057-.275-.28.007-4.487.006-8.976.006-13.464V8.503c-.003-.401.042-.365-.35-.366h-2.13c-.05 0-.1.004-.149 0-.125-.01-.17.047-.186.174-.282 2.24-.568 4.48-.856 6.72-.32 2.49-.644 4.98-.965 7.47-.034.257-.07.516-.092.774-.011.141-.072.183-.203.182-.86-.003-1.718-.004-2.578 0-.13.001-.179-.04-.198-.181-.308-2.325-.623-4.648-.936-6.972l-.556-4.118c-.01-.062-.032-.123-.047-.184l-.049-.003zm27.717-6.622h4.192v18.06c-.087.007-.169.018-.25.018-.783 0-1.563-.007-2.345.006-.213.003-.272-.058-.272-.279.006-4.235.004-8.47.004-12.704v-.268l-.063-.006c-.041.22-.084.442-.122.663-.588 3.565-1.174 7.129-1.763 10.693-.094.57-.197 1.137-.283 1.708-.022.15-.082.19-.22.189a49.995 49.995 0 0 0-1.427.002c-.148.002-.196-.062-.217-.196-.356-2.207-.715-4.413-1.073-6.62-.342-2.107-.686-4.214-1.029-6.32-.007-.04-.026-.077-.093-.115v12.96c0 .286-.001.287-.273.287-.61 0-1.222-.008-1.832.005-.207.005-.276-.046-.275-.274.009-2.999.006-5.998.006-8.998V5.38h4.285l1.461 9.25.077.006 1.512-9.258zm9.072 7.406h2.999v2.943h-3.004v4.952h4.245c.006.09.013.152.013.216 0 .78-.003 1.561.005 2.341.002.17-.046.224-.215.224-2.357-.005-4.714-.003-7.072-.004-.062 0-.124-.01-.197-.017V5.381h7.295v2.75h-4.07v4.652zM22.957 14.31c.01-1.746.147-3.26.71-4.695.174-.443.425-.867.71-1.245.336-.448.81-.68 1.388-.533.355.09.61.329.82.62.472.654.707 1.41.888 2.185.31 1.326.476 2.67.426 4.034-.055 1.485-.244 2.95-.852 4.321a4.431 4.431 0 0 1-.684 1.085c-.523.603-1.236.609-1.825.07-.43-.394-.68-.901-.882-1.438-.379-1.007-.547-2.059-.634-3.125-.04-.496-.05-.995-.065-1.279zM.084 13.97c.29.237.576.482.873.71.757.586 1.539 1.14 2.272 1.752.765.637 1.12 1.49 1.069 2.505-.02.401-.109.785-.324 1.128-.437.696-1.242.884-1.93.445-.413-.264-.696-.653-.93-1.08-.49-.894-.75-1.869-.882-2.873C.12 15.707.075 14.85 0 13.996l.084-.027z" stroke="#FF3030" fill="#FF3636" opacity=".5" filter="url(#R)" transform="translate(89.226 34)"/><path d="M15.249 5.091v7.49H11.81V5.098H8.62c-.005.082-.011.146-.011.21-.001 6.064 0 12.127-.005 18.19 0 .194.058.244.242.242.917-.007 1.832-.003 2.749-.004.067 0 .136-.01.226-.016v-8.053h3.43v.3c0 2.5.005 5-.004 7.502-.001.227.068.275.276.272.887-.01 1.775-.004 2.663-.005.083 0 .166-.007.256-.012V5.09H15.25zM3.727 23.723c.325-.085.674-.131.987-.265 1.304-.552 2.118-1.585 2.482-2.932.566-2.102.099-4-1.316-5.642-.68-.789-1.529-1.377-2.353-1.992-.664-.495-1.335-.987-1.83-1.673-.552-.763-.758-1.61-.533-2.538.2-.822.856-1.223 1.623-1.022.39.101.63.373.789.731.213.483.265 1 .295 1.52.01.18.001.36.001.554H6.87c0-.258.01-.523-.002-.786-.04-.883-.155-1.754-.462-2.587C5.945 5.844 5.1 5.035 3.82 4.714c-.047-.011-.092-.025-.187-.05C6.331 1.734 9.605.106 13.515.005c4.249-.108 7.876 1.4 10.795 4.681l-.296.078c-.883.236-1.552.79-2.108 1.5-.788 1.006-1.258 2.17-1.58 3.4-.493 1.887-.626 3.81-.528 5.756.076 1.515.312 2.998.828 4.426.426 1.179 1.008 2.263 1.946 3.11.222.2.468.379.723.531.25.148.524.25.822.388-2.48 2.602-5.473 4.12-9.035 4.41-5.246.43-9.256-2.111-11.355-4.562zm33.078-11.724c-.04.259-.08.516-.118.775-.24 1.693-.478 3.387-.716 5.08a5041.16 5041.16 0 0 0-.74 5.293c-.042.308-.037.308-.347.31-.774 0-1.548-.004-2.322.001-.144.001-.209-.032-.23-.195-.143-1.16-.3-2.318-.452-3.477l-.528-4.056a5116.14 5116.14 0 0 0-.494-3.778l-.533-4.077c-.104-.794-.21-1.589-.313-2.382-.004-.034.003-.07.005-.115h2.903l1.147 10.591.075.004 1.547-10.595h2.91l1.412 10.6.067.005c.021-.103.05-.205.063-.31l.55-4.6c.176-1.49.35-2.98.525-4.472.042-.359.088-.717.127-1.075.012-.113.051-.175.171-.16.042.005.086 0 .128 0h13.892c.006.094.013.178.013.261.001 5.854 0 11.708.005 17.562 0 .204-.049.274-.258.272a96.685 96.685 0 0 0-2.706 0c-.224.003-.267-.073-.267-.283.006-4.9.005-9.801.005-14.701 0-.34 0-.34-.332-.34H49.63c-.312 0-.313 0-.313.313l-.001 14.57c0 .497.066.432-.432.435-.839.003-1.677-.007-2.514.006-.214.003-.275-.057-.275-.28.007-4.487.006-8.976.006-13.464V8.503c-.003-.401.042-.365-.35-.366h-2.13c-.05 0-.1.004-.149 0-.125-.01-.17.047-.186.174-.282 2.24-.568 4.48-.856 6.72-.32 2.49-.644 4.98-.965 7.47-.034.257-.07.516-.092.774-.011.141-.072.183-.203.182-.86-.003-1.718-.004-2.578 0-.13.001-.179-.04-.198-.181-.308-2.325-.623-4.648-.936-6.972l-.556-4.118c-.01-.062-.032-.123-.047-.184l-.049-.003zm27.717-6.622h4.192v18.06c-.087.007-.169.018-.25.018-.783 0-1.563-.007-2.345.006-.213.003-.272-.058-.272-.279.006-4.235.004-8.47.004-12.704v-.268l-.063-.006c-.041.22-.084.442-.122.663-.588 3.565-1.174 7.129-1.763 10.693-.094.57-.197 1.137-.283 1.708-.022.15-.082.19-.22.189a49.995 49.995 0 0 0-1.427.002c-.148.002-.196-.062-.217-.196-.356-2.207-.715-4.413-1.073-6.62-.342-2.107-.686-4.214-1.029-6.32-.007-.04-.026-.077-.093-.115v12.96c0 .286-.001.287-.273.287-.61 0-1.222-.008-1.832.005-.207.005-.276-.046-.275-.274.009-2.999.006-5.998.006-8.998V5.38h4.285l1.461 9.25.077.006 1.512-9.258zm9.072 7.406h2.999v2.943h-3.004v4.952h4.245c.006.09.013.152.013.216 0 .78-.003 1.561.005 2.341.002.17-.046.224-.215.224-2.357-.005-4.714-.003-7.072-.004-.062 0-.124-.01-.197-.017V5.381h7.295v2.75h-4.07v4.652zM22.957 14.31c.01-1.746.147-3.26.71-4.695.174-.443.425-.867.71-1.245.336-.448.81-.68 1.388-.533.355.09.61.329.82.62.472.654.707 1.41.888 2.185.31 1.326.476 2.67.426 4.034-.055 1.485-.244 2.95-.852 4.321a4.431 4.431 0 0 1-.684 1.085c-.523.603-1.236.609-1.825.07-.43-.394-.68-.901-.882-1.438-.379-1.007-.547-2.059-.634-3.125-.04-.496-.05-.995-.065-1.279zM.084 13.97c.29.237.576.482.873.71.757.586 1.539 1.14 2.272 1.752.765.637 1.12 1.49 1.069 2.505-.02.401-.109.785-.324 1.128-.437.696-1.242.884-1.93.445-.413-.264-.696-.653-.93-1.08-.49-.894-.75-1.869-.882-2.873C.12 15.707.075 14.85 0 13.996l.084-.027z" stroke="#D80000" fill="#D80000" opacity=".51" filter="url(#S)" transform="translate(89.226 34)"/><path d="M104.475 39.091v7.49h-3.438v-7.483h-3.19c-.005.082-.01.146-.01.21-.002 6.064 0 12.127-.006 18.19 0 .194.059.244.243.242.916-.007 1.831-.003 2.748-.004.068 0 .136-.01.226-.016v-8.053h3.43v.3c0 2.5.005 5-.004 7.502 0 .227.068.275.277.272.887-.01 1.774-.004 2.662-.005.083 0 .166-.007.257-.012V39.09h-3.195zM92.953 57.723c.325-.085.674-.131.988-.265 1.303-.552 2.118-1.585 2.481-2.932.566-2.102.1-4-1.316-5.642-.68-.789-1.529-1.377-2.353-1.992-.664-.495-1.335-.987-1.83-1.673-.552-.763-.758-1.61-.533-2.538.2-.822.856-1.223 1.624-1.022.389.101.63.373.788.731.214.483.265 1 .295 1.52.01.18.002.36.002.554h2.996c0-.258.01-.523-.002-.786-.04-.883-.154-1.754-.462-2.587-.46-1.247-1.305-2.056-2.585-2.377-.046-.011-.092-.025-.187-.05 2.698-2.93 5.973-4.558 9.882-4.659 4.249-.108 7.876 1.4 10.795 4.681l-.295.078c-.883.236-1.553.79-2.109 1.5-.788 1.006-1.258 2.17-1.58 3.4-.493 1.887-.625 3.81-.527 5.756.075 1.515.312 2.998.827 4.426.427 1.179 1.008 2.263 1.947 3.11.221.2.467.379.723.531.248.148.523.25.822.388-2.48 2.602-5.474 4.12-9.036 4.41-5.246.43-9.255-2.111-11.355-4.562zm33.079-11.724c-.04.259-.082.516-.119.775l-.716 5.08a5041.16 5041.16 0 0 0-.739 5.293c-.043.308-.038.308-.348.31-.773 0-1.548-.004-2.322.001-.144.001-.209-.032-.229-.195-.144-1.16-.3-2.318-.453-3.477l-.528-4.056a5116.14 5116.14 0 0 0-.494-3.778l-.533-4.077c-.104-.794-.21-1.589-.313-2.382-.004-.034.003-.07.005-.115h2.904l1.146 10.591.075.004 1.547-10.595h2.91l1.413 10.6.066.005c.021-.103.05-.205.063-.31l.55-4.6c.176-1.49.35-2.98.525-4.472.042-.359.089-.717.127-1.075.012-.113.051-.175.171-.16.042.005.086 0 .128 0h13.892c.006.094.014.178.014.261 0 5.854 0 11.708.004 17.562 0 .204-.048.274-.258.272a96.685 96.685 0 0 0-2.705 0c-.225.003-.267-.073-.267-.283.005-4.9.004-9.801.004-14.701 0-.34 0-.34-.332-.34h-2.364c-.313 0-.314 0-.314.313l-.001 14.57c0 .497.067.432-.432.435-.838.003-1.677-.007-2.514.006-.213.003-.274-.057-.274-.28.006-4.487.005-8.976.005-13.464v-1.214c-.003-.401.042-.365-.35-.366h-2.13c-.05 0-.1.004-.149 0-.125-.01-.17.047-.186.174-.282 2.24-.568 4.48-.856 6.72-.32 2.49-.644 4.98-.965 7.47-.034.257-.07.516-.092.774-.011.141-.072.183-.203.182-.859-.003-1.718-.004-2.577 0-.131.001-.18-.04-.199-.181-.308-2.325-.622-4.648-.936-6.972l-.556-4.118c-.01-.062-.032-.123-.047-.184l-.048-.003zm27.716-6.622h4.192v18.06c-.086.007-.168.018-.25.018-.782 0-1.562-.007-2.344.006-.214.003-.273-.058-.273-.279.007-4.235.005-8.47.005-12.704v-.268l-.064-.006c-.041.22-.084.442-.121.663-.589 3.565-1.175 7.129-1.764 10.693-.094.57-.197 1.137-.283 1.708-.022.15-.082.19-.22.189a49.995 49.995 0 0 0-1.427.002c-.147.002-.196-.062-.217-.196a14517.518 14517.518 0 0 0-2.102-12.94c-.006-.04-.026-.077-.093-.115v12.96c0 .286-.001.287-.273.287-.61 0-1.222-.008-1.832.005-.207.005-.275-.046-.274-.274.008-2.999.005-5.998.005-8.998V39.38h4.286l1.46 9.25.077.006 1.512-9.258zm9.072 7.406h3v2.943h-3.005v4.952h4.245c.006.09.013.152.013.216.001.78-.003 1.561.005 2.341.002.17-.046.224-.215.224-2.357-.005-4.714-.003-7.072-.004-.062 0-.124-.01-.197-.017V39.381h7.295v2.75h-4.069v4.652zm-50.637 1.527c.01-1.746.147-3.26.71-4.695.174-.443.425-.867.71-1.245.337-.448.81-.68 1.388-.533.355.09.61.329.82.62.473.654.707 1.41.888 2.185.31 1.326.476 2.67.427 4.034-.056 1.485-.245 2.95-.853 4.321a4.431 4.431 0 0 1-.684 1.085c-.523.603-1.236.609-1.825.07-.429-.394-.68-.901-.882-1.438-.379-1.007-.546-2.059-.634-3.125-.04-.496-.05-.995-.065-1.279zm-22.873-.34c.291.237.576.482.874.71.756.586 1.538 1.14 2.271 1.752.765.637 1.12 1.49 1.07 2.505-.02.401-.11.785-.325 1.128-.437.696-1.242.884-1.93.445-.413-.264-.695-.653-.929-1.08-.491-.894-.75-1.869-.883-2.873-.112-.85-.156-1.707-.232-2.561l.084-.027z" stroke="#D80000" fill="#FFD4D4"/></g><g fill="#EAD3FF" stroke-width=".6"><g opacity=".6" stroke="#80F"><path d="M5.007 8.523l-.455-.493a3.339 3.339 0 0 1-1.975.637c-.75 0-1.366-.204-1.85-.613C.242 7.646 0 7.062 0 6.301c0-.552.144-1.004.431-1.356.288-.353.682-.66 1.181-.925-.31-.616-.465-1.173-.465-1.669 0-.36.098-.69.295-.99.197-.3.47-.537.817-.709A2.629 2.629 0 0 1 3.44.394c.38 0 .73.07 1.051.21.322.14.58.344.778.612.196.269.295.579.295.93 0 .385-.081.711-.244.98-.163.268-.371.49-.625.666-.253.176-.57.352-.948.528.046.072.224.316.534.733l.522.672c.28-.44.488-.909.625-1.405l1.373.685a9.297 9.297 0 0 1-1.067 1.86c.235.28.61.709 1.124 1.285l.33.373h-2.18zM2.875 2.538c0 .254.108.542.325.864.352-.134.626-.28.82-.438.195-.157.292-.34.292-.55a.45.45 0 0 0-.183-.376.747.747 0 0 0-.468-.14.87.87 0 0 0-.563.18.564.564 0 0 0-.223.46zm-.09 5c.262 0 .531-.09.808-.273L2.886 6.3a44.64 44.64 0 0 1-.663-1.018 1.427 1.427 0 0 0-.426 1.044c0 .356.097.647.292.873.194.227.426.34.696.34z" filter="url(#T)" transform="translate(159.426 132)"/><path d="M17.72 2.734l-2.005 5.395h-.902L12.82 2.734v5.395h-2.04V.132h2.835l1.65 4.532 1.66-4.532h2.836v7.997h-2.04V2.734zm3.061 1.402c0-.799.184-1.512.552-2.14A3.881 3.881 0 0 1 22.85.528C23.496.176 24.218 0 25.017 0c.798 0 1.518.176 2.159.528.64.351 1.145.84 1.513 1.468.367.628.551 1.341.551 2.14 0 .8-.184 1.513-.551 2.14a3.892 3.892 0 0 1-1.513 1.47c-.64.35-1.36.527-2.16.527-.798 0-1.52-.176-2.165-.528a3.881 3.881 0 0 1-1.518-1.469c-.368-.627-.552-1.34-.552-2.14zm6.383 0c0-.431-.089-.823-.267-1.175a2.064 2.064 0 0 0-.753-.833 2.073 2.073 0 0 0-1.127-.306c-.428 0-.805.102-1.133.306a2.05 2.05 0 0 0-.76.833 2.565 2.565 0 0 0-.267 1.175c0 .432.09.824.267 1.175.178.352.431.63.76.834.328.203.705.305 1.133.305.427 0 .802-.102 1.127-.305.324-.204.575-.482.753-.834.178-.351.267-.743.267-1.175zm6.193 1.283h-1.044v2.71h-2.04V.132h3.962c.57 0 1.062.116 1.477.348.415.231.732.55.95.953.217.403.326.857.326 1.36 0 .64-.157 1.162-.469 1.565-.312.404-.682.682-1.11.833l1.614 2.938h-2.337l-1.329-2.71zm1.554-2.65a.82.82 0 0 0-.284-.653 1.034 1.034 0 0 0-.7-.246h-1.614v1.8h1.614c.276 0 .51-.082.7-.246a.82.82 0 0 0 .284-.653zM38.115.133h5.801V1.87h-3.76v1.331h3.677v1.75h-3.678v1.44h3.761v1.738h-5.801V.132z" filter="url(#U)" transform="translate(159.426 132)"/></g><g stroke="#80F"><path d="M5.007 8.523l-.455-.493a3.339 3.339 0 0 1-1.975.637c-.75 0-1.366-.204-1.85-.613C.242 7.646 0 7.062 0 6.301c0-.552.144-1.004.431-1.356.288-.353.682-.66 1.181-.925-.31-.616-.465-1.173-.465-1.669 0-.36.098-.69.295-.99.197-.3.47-.537.817-.709A2.629 2.629 0 0 1 3.44.394c.38 0 .73.07 1.051.21.322.14.58.344.778.612.196.269.295.579.295.93 0 .385-.081.711-.244.98-.163.268-.371.49-.625.666-.253.176-.57.352-.948.528.046.072.224.316.534.733l.522.672c.28-.44.488-.909.625-1.405l1.373.685a9.297 9.297 0 0 1-1.067 1.86c.235.28.61.709 1.124 1.285l.33.373h-2.18zM2.875 2.538c0 .254.108.542.325.864.352-.134.626-.28.82-.438.195-.157.292-.34.292-.55a.45.45 0 0 0-.183-.376.747.747 0 0 0-.468-.14.87.87 0 0 0-.563.18.564.564 0 0 0-.223.46zm-.09 5c.262 0 .531-.09.808-.273L2.886 6.3a44.64 44.64 0 0 1-.663-1.018 1.427 1.427 0 0 0-.426 1.044c0 .356.097.647.292.873.194.227.426.34.696.34z" filter="url(#V)" transform="translate(159.426 132)"/><path d="M17.72 2.734l-2.005 5.395h-.902L12.82 2.734v5.395h-2.04V.132h2.835l1.65 4.532 1.66-4.532h2.836v7.997h-2.04V2.734zm3.061 1.402c0-.799.184-1.512.552-2.14A3.881 3.881 0 0 1 22.85.528C23.496.176 24.218 0 25.017 0c.798 0 1.518.176 2.159.528.64.351 1.145.84 1.513 1.468.367.628.551 1.341.551 2.14 0 .8-.184 1.513-.551 2.14a3.892 3.892 0 0 1-1.513 1.47c-.64.35-1.36.527-2.16.527-.798 0-1.52-.176-2.165-.528a3.881 3.881 0 0 1-1.518-1.469c-.368-.627-.552-1.34-.552-2.14zm6.383 0c0-.431-.089-.823-.267-1.175a2.064 2.064 0 0 0-.753-.833 2.073 2.073 0 0 0-1.127-.306c-.428 0-.805.102-1.133.306a2.05 2.05 0 0 0-.76.833 2.565 2.565 0 0 0-.267 1.175c0 .432.09.824.267 1.175.178.352.431.63.76.834.328.203.705.305 1.133.305.427 0 .802-.102 1.127-.305.324-.204.575-.482.753-.834.178-.351.267-.743.267-1.175zm6.193 1.283h-1.044v2.71h-2.04V.132h3.962c.57 0 1.062.116 1.477.348.415.231.732.55.95.953.217.403.326.857.326 1.36 0 .64-.157 1.162-.469 1.565-.312.404-.682.682-1.11.833l1.614 2.938h-2.337l-1.329-2.71zm1.554-2.65a.82.82 0 0 0-.284-.653 1.034 1.034 0 0 0-.7-.246h-1.614v1.8h1.614c.276 0 .51-.082.7-.246a.82.82 0 0 0 .284-.653zM38.115.133h5.801V1.87h-3.76v1.331h3.677v1.75h-3.678v1.44h3.761v1.738h-5.801V.132z" filter="url(#W)" transform="translate(159.426 132)"/></g><path d="M164.432 140.523l-.454-.493a3.339 3.339 0 0 1-1.975.637c-.75 0-1.366-.204-1.85-.613-.485-.408-.727-.992-.727-1.753 0-.552.144-1.004.431-1.356.288-.353.681-.66 1.181-.925-.31-.616-.466-1.173-.466-1.669 0-.36.099-.69.296-.99.196-.3.469-.537.817-.709a2.629 2.629 0 0 1 1.18-.258c.38 0 .73.07 1.05.21.323.14.582.344.779.612.196.269.295.579.295.93 0 .385-.082.711-.244.98-.163.268-.371.49-.625.666-.253.176-.57.352-.948.528.046.072.224.316.534.733l.522.672c.28-.44.488-.909.624-1.405l1.374.685a9.297 9.297 0 0 1-1.067 1.86c.235.28.61.709 1.124 1.285l.33.373h-2.18zm-2.132-5.985c0 .254.109.542.326.864.352-.134.626-.28.82-.438.194-.157.292-.34.292-.55a.45.45 0 0 0-.183-.376.747.747 0 0 0-.468-.14.87.87 0 0 0-.563.18.564.564 0 0 0-.224.46zm-.09 5c.263 0 .532-.09.809-.273l-.707-.965a44.64 44.64 0 0 1-.663-1.018 1.427 1.427 0 0 0-.427 1.044c0 .356.098.647.292.873.195.227.427.34.697.34z" stroke="#A136FF"/><path d="M177.146 134.734l-2.005 5.395h-.902l-1.993-5.395v5.395h-2.04v-7.997h2.835l1.649 4.532 1.661-4.532h2.836v7.997h-2.041v-5.395zm3.06 1.402c0-.799.185-1.512.553-2.14a3.881 3.881 0 0 1 1.518-1.468c.645-.352 1.367-.528 2.165-.528.8 0 1.52.176 2.16.528a3.88 3.88 0 0 1 1.512 1.468c.368.628.552 1.341.552 2.14 0 .8-.184 1.513-.552 2.14a3.892 3.892 0 0 1-1.512 1.47c-.64.35-1.36.527-2.16.527-.798 0-1.52-.176-2.165-.528a3.881 3.881 0 0 1-1.518-1.469c-.368-.627-.552-1.34-.552-2.14zm6.384 0c0-.431-.09-.823-.267-1.175a2.064 2.064 0 0 0-.753-.833 2.073 2.073 0 0 0-1.128-.306c-.427 0-.804.102-1.133.306a2.05 2.05 0 0 0-.759.833 2.565 2.565 0 0 0-.267 1.175c0 .432.09.824.267 1.175.178.352.431.63.76.834.328.203.705.305 1.132.305.428 0 .803-.102 1.128-.305.324-.204.575-.482.753-.834.178-.351.267-.743.267-1.175zm6.193 1.283h-1.044v2.71h-2.04v-7.997h3.962c.57 0 1.062.116 1.477.348.415.231.732.55.95.953.217.403.325.857.325 1.36 0 .64-.156 1.162-.468 1.565-.313.404-.682.682-1.11.833l1.614 2.938h-2.337l-1.329-2.71zm1.554-2.65a.82.82 0 0 0-.285-.653 1.034 1.034 0 0 0-.7-.246h-1.613v1.799h1.613c.277 0 .51-.082.7-.246a.82.82 0 0 0 .285-.653zm3.204-2.637h5.801v1.738h-3.76v1.331h3.677v1.75h-3.678v1.44h3.761v1.738h-5.801v-7.997z" stroke="#B969FF"/></g></g></svg>