<?xml version="1.0" encoding="UTF-8" standalone="no"?>
<!DOCTYPE svg PUBLIC "-//W3C//DTD SVG 1.1//EN" "http://www.w3.org/Graphics/SVG/1.1/DTD/svg11.dtd">
<svg version="1.1" xmlns="http://www.w3.org/2000/svg" xmlns:xlink="http://www.w3.org/1999/xlink" preserveAspectRatio="xMidYMid meet" viewBox="0 0 640 640" width="640" height="640"><defs><path d="M472.93 221.12L505.2 244.27L475.22 285.05L477.12 287.32L481.82 293.41L486.29 299.67L490.51 306.11L494.49 312.72L498.21 319.49L501.67 326.41L504.87 333.48L507.79 340.7L510.43 348.05L512.79 355.53L514.85 363.13L516.61 370.85L518.07 378.68L519.21 386.61L520.04 394.64L520.54 402.76L520.71 410.96L520.54 419.17L520.04 427.29L519.21 435.32L518.07 443.25L516.61 451.08L514.85 458.8L512.79 466.4L510.43 473.88L507.79 481.23L504.87 488.44L501.67 495.52L498.21 502.44L494.49 509.21L490.51 515.82L486.29 522.26L481.82 528.52L477.12 534.61L472.19 540.51L467.04 546.21L461.68 551.72L456.1 557.01L450.33 562.1L444.35 566.97L438.19 571.61L431.85 576.02L425.33 580.19L418.64 584.12L411.78 587.8L404.77 591.22L397.61 594.37L390.31 597.26L382.87 599.87L375.29 602.2L367.6 604.23L359.78 605.97L351.85 607.41L343.82 608.54L335.69 609.36L327.47 609.85L319.16 610.02L310.86 609.85L302.63 609.36L294.5 608.54L286.47 607.41L278.55 605.97L270.73 604.23L263.03 602.2L255.46 599.87L248.02 597.26L240.71 594.37L233.55 591.22L226.54 587.8L219.69 584.12L213 580.19L206.48 576.02L200.13 571.61L193.97 566.97L188 562.1L182.22 557.01L176.65 551.72L171.28 546.21L166.13 540.51L161.21 534.61L156.51 528.52L152.04 522.26L147.81 515.82L143.84 509.21L140.12 502.44L136.65 495.52L133.46 488.44L130.54 481.23L127.89 473.88L125.54 466.4L123.48 458.8L121.71 451.08L120.26 443.25L119.11 435.32L118.29 427.29L117.79 419.17L117.62 410.96L117.79 402.76L118.29 394.64L119.11 386.61L120.26 378.68L121.71 370.85L123.48 363.13L125.54 355.53L127.89 348.05L130.54 340.7L133.46 333.48L136.65 326.41L140.12 319.49L143.84 312.72L147.81 306.11L152.04 299.67L156.51 293.41L161.21 287.32L166.13 281.42L171.28 275.72L176.65 270.21L182.22 264.91L188 259.83L193.97 254.96L200.13 250.32L206.48 245.91L213 241.73L219.69 237.81L226.54 234.13L233.55 230.71L240.71 227.55L248.02 224.67L255.46 222.06L263.03 219.73L270.73 217.7L278.55 215.96L286.47 214.52L294.5 213.39L302.63 212.57L310.86 212.08L319.16 211.91L327.47 212.08L335.69 212.57L343.82 213.39L351.85 214.52L359.78 215.96L367.6 217.7L375.29 219.73L382.87 222.06L386.48 223.33L417.4 181.29L461.71 213.08L501.59 157.62L512.89 165.55L472.93 221.12ZM208.83 272.86L207.37 273.1L205.89 273.42L204.38 273.84L202.84 274.35L201.27 274.96L199.68 275.65L198.07 276.43L196.44 277.29L194.8 278.24L193.13 279.27L191.46 280.38L189.78 281.58L188.08 282.85L186.38 284.2L184.67 285.62L182.96 287.12L181.25 288.7L179.55 290.34L177.84 292.05L176.14 293.83L174.44 295.68L172.76 297.6L171.09 299.58L169.42 301.62L167.78 303.72L166.15 305.88L164.54 308.1L162.95 310.38L161.38 312.71L159.84 315.1L158.33 317.53L156.84 320.02L155.4 322.54L154.02 325.05L152.7 327.56L151.44 330.07L150.24 332.56L149.1 335.05L148.02 337.53L147 339.98L146.04 342.43L145.14 344.85L144.3 347.25L143.53 349.62L142.82 351.96L142.17 354.28L141.58 356.56L141.06 358.81L140.6 361.02L140.2 363.2L139.87 365.33L139.6 367.41L139.39 369.45L139.26 371.44L139.18 373.37L139.17 375.26L139.23 377.08L139.35 378.85L139.54 380.55L139.79 382.19L140.12 383.77L140.51 385.27L140.96 386.7L141.48 388.06L142.08 389.35L142.74 390.55L143.46 391.67L144.26 392.71L145.13 393.67L146.06 394.53L147.06 395.3L148.14 395.98L149.27 396.56L150.45 397.03L151.68 397.4L152.95 397.67L154.26 397.83L155.6 397.89L156.99 397.85L158.41 397.72L159.86 397.48L161.35 397.16L162.86 396.74L164.4 396.23L165.97 395.62L167.56 394.93L169.17 394.15L170.8 393.29L172.44 392.34L174.1 391.31L175.78 390.2L177.46 389L179.16 387.73L180.86 386.38L182.56 384.96L184.27 383.46L185.98 381.88L187.69 380.24L189.4 378.53L191.1 376.75L192.79 374.9L194.48 372.98L196.15 371L197.81 368.96L199.46 366.86L201.09 364.7L202.7 362.48L204.29 360.2L205.85 357.87L207.4 355.48L208.91 353.05L210.39 350.56L211.83 348.04L213.22 345.53L214.54 343.02L215.8 340.51L217 338.01L218.14 335.53L219.22 333.05L220.24 330.59L221.2 328.15L222.1 325.73L222.94 323.33L223.71 320.96L224.42 318.61L225.07 316.3L225.66 314.01L226.18 311.77L226.64 309.55L227.04 307.38L227.37 305.25L227.64 303.17L227.84 301.13L227.98 299.14L228.06 297.2L228.07 295.32L228.01 293.5L227.89 291.73L227.7 290.03L227.44 288.39L227.12 286.81L226.73 285.31L226.28 283.87L225.75 282.52L225.16 281.23L224.5 280.03L223.77 278.91L222.98 277.87L222.11 276.91L221.18 276.05L220.17 275.28L219.1 274.6L217.97 274.02L216.79 273.54L215.56 273.18L214.29 272.91L212.98 272.75L211.63 272.69L210.25 272.73L208.83 272.86ZM612.32 81.47L584.84 109.29L591.32 148.57L557.35 130.03L523.38 148.57L529.87 109.29L502.39 81.47L540.37 75.74L557.35 40L574.34 75.74L612.32 81.47Z" id="a1nEdjkm8N"></path></defs><g><g><g><g><filter id="shadow11866721" x="84.62" y="7" width="585.7" height="661.02" filterUnits="userSpaceOnUse" primitiveUnits="userSpaceOnUse"><feFlood></feFlood><feComposite in2="SourceAlpha" operator="in"></feComposite><feGaussianBlur stdDeviation="1"></feGaussianBlur><feOffset dx="25" dy="25" result="afterOffset"></feOffset><feFlood flood-color="#111010" flood-opacity="0.43"></feFlood><feComposite in2="afterOffset" operator="in"></feComposite><feMorphology operator="dilate" radius="1"></feMorphology><feComposite in2="SourceAlpha" operator="out"></feComposite></filter><path d="M472.93 221.12L505.2 244.27L475.22 285.05L477.12 287.32L481.82 293.41L486.29 299.67L490.51 306.11L494.49 312.72L498.21 319.49L501.67 326.41L504.87 333.48L507.79 340.7L510.43 348.05L512.79 355.53L514.85 363.13L516.61 370.85L518.07 378.68L519.21 386.61L520.04 394.64L520.54 402.76L520.71 410.96L520.54 419.17L520.04 427.29L519.21 435.32L518.07 443.25L516.61 451.08L514.85 458.8L512.79 466.4L510.43 473.88L507.79 481.23L504.87 488.44L501.67 495.52L498.21 502.44L494.49 509.21L490.51 515.82L486.29 522.26L481.82 528.52L477.12 534.61L472.19 540.51L467.04 546.21L461.68 551.72L456.1 557.01L450.33 562.1L444.35 566.97L438.19 571.61L431.85 576.02L425.33 580.19L418.64 584.12L411.78 587.8L404.77 591.22L397.61 594.37L390.31 597.26L382.87 599.87L375.29 602.2L367.6 604.23L359.78 605.97L351.85 607.41L343.82 608.54L335.69 609.36L327.47 609.85L319.16 610.02L310.86 609.85L302.63 609.36L294.5 608.54L286.47 607.41L278.55 605.97L270.73 604.23L263.03 602.2L255.46 599.87L248.02 597.26L240.71 594.37L233.55 591.22L226.54 587.8L219.69 584.12L213 580.19L206.48 576.02L200.13 571.61L193.97 566.97L188 562.1L182.22 557.01L176.65 551.72L171.28 546.21L166.13 540.51L161.21 534.61L156.51 528.52L152.04 522.26L147.81 515.82L143.84 509.21L140.12 502.44L136.65 495.52L133.46 488.44L130.54 481.23L127.89 473.88L125.54 466.4L123.48 458.8L121.71 451.08L120.26 443.25L119.11 435.32L118.29 427.29L117.79 419.17L117.62 410.96L117.79 402.76L118.29 394.64L119.11 386.61L120.26 378.68L121.71 370.85L123.48 363.13L125.54 355.53L127.89 348.05L130.54 340.7L133.46 333.48L136.65 326.41L140.12 319.49L143.84 312.72L147.81 306.11L152.04 299.67L156.51 293.41L161.21 287.32L166.13 281.42L171.28 275.72L176.65 270.21L182.22 264.91L188 259.83L193.97 254.96L200.13 250.32L206.48 245.91L213 241.73L219.69 237.81L226.54 234.13L233.55 230.71L240.71 227.55L248.02 224.67L255.46 222.06L263.03 219.73L270.73 217.7L278.55 215.96L286.47 214.52L294.5 213.39L302.63 212.57L310.86 212.08L319.16 211.91L327.47 212.08L335.69 212.57L343.82 213.39L351.85 214.52L359.78 215.96L367.6 217.7L375.29 219.73L382.87 222.06L386.48 223.33L417.4 181.29L461.71 213.08L501.59 157.62L512.89 165.55L472.93 221.12ZM208.83 272.86L207.37 273.1L205.89 273.42L204.38 273.84L202.84 274.35L201.27 274.96L199.68 275.65L198.07 276.43L196.44 277.29L194.8 278.24L193.13 279.27L191.46 280.38L189.78 281.58L188.08 282.85L186.38 284.2L184.67 285.62L182.96 287.12L181.25 288.7L179.55 290.34L177.84 292.05L176.14 293.83L174.44 295.68L172.76 297.6L171.09 299.58L169.42 301.62L167.78 303.72L166.15 305.88L164.54 308.1L162.95 310.38L161.38 312.71L159.84 315.1L158.33 317.53L156.84 320.02L155.4 322.54L154.02 325.05L152.7 327.56L151.44 330.07L150.24 332.56L149.1 335.05L148.02 337.53L147 339.98L146.04 342.43L145.14 344.85L144.3 347.25L143.53 349.62L142.82 351.96L142.17 354.28L141.58 356.56L141.06 358.81L140.6 361.02L140.2 363.2L139.87 365.33L139.6 367.41L139.39 369.45L139.26 371.44L139.18 373.37L139.17 375.26L139.23 377.08L139.35 378.85L139.54 380.55L139.79 382.19L140.12 383.77L140.51 385.27L140.96 386.7L141.48 388.06L142.08 389.35L142.74 390.55L143.46 391.67L144.26 392.71L145.13 393.67L146.06 394.53L147.06 395.3L148.14 395.98L149.27 396.56L150.45 397.03L151.68 397.4L152.95 397.67L154.26 397.83L155.6 397.89L156.99 397.85L158.41 397.72L159.86 397.48L161.35 397.16L162.86 396.74L164.4 396.23L165.97 395.62L167.56 394.93L169.17 394.15L170.8 393.29L172.44 392.34L174.1 391.31L175.78 390.2L177.46 389L179.16 387.73L180.86 386.38L182.56 384.96L184.27 383.46L185.98 381.88L187.69 380.24L189.4 378.53L191.1 376.75L192.79 374.9L194.48 372.98L196.15 371L197.81 368.96L199.46 366.86L201.09 364.7L202.7 362.48L204.29 360.2L205.85 357.87L207.4 355.48L208.91 353.05L210.39 350.56L211.83 348.04L213.22 345.53L214.54 343.02L215.8 340.51L217 338.01L218.14 335.53L219.22 333.05L220.24 330.59L221.2 328.15L222.1 325.73L222.94 323.33L223.71 320.96L224.42 318.61L225.07 316.3L225.66 314.01L226.18 311.77L226.64 309.55L227.04 307.38L227.37 305.25L227.64 303.17L227.84 301.13L227.98 299.14L228.06 297.2L228.07 295.32L228.01 293.5L227.89 291.73L227.7 290.03L227.44 288.39L227.12 286.81L226.73 285.31L226.28 283.87L225.75 282.52L225.16 281.23L224.5 280.03L223.77 278.91L222.98 277.87L222.11 276.91L221.18 276.05L220.17 275.28L219.1 274.6L217.97 274.02L216.79 273.54L215.56 273.18L214.29 272.91L212.98 272.75L211.63 272.69L210.25 272.73L208.83 272.86ZM612.32 81.47L584.84 109.29L591.32 148.57L557.35 130.03L523.38 148.57L529.87 109.29L502.39 81.47L540.37 75.74L557.35 40L574.34 75.74L612.32 81.47Z" id="a3x5vXnfqB" fill="white" fill-opacity="1" filter="url(#shadow11866721)"></path></g><use xlink:href="#a1nEdjkm8N" opacity="1" fill="#080808" fill-opacity="1"></use><g><use xlink:href="#a1nEdjkm8N" opacity="1" fill-opacity="0" stroke="#080808" stroke-width="1" stroke-opacity="1"></use></g></g></g></g></svg>